<svg xmlns="http://www.w3.org/2000/svg" width="501.98" height="501.98" viewBox="0 0 501.98 501.98">
  <g id="Group_47" data-name="Group 47" transform="translate(-52.5 753.5)">
    <path id="Path_1" data-name="Path 1" d="M498.71,271c-2.18,31.55-10.68,61.41-24.52,89.75a248.946,248.946,0,0,1-439.06,14.6c-.34-.59-1.05-1.14-.67-2,1.48-.13,1.13-1,.82-1.95l-8.74-26.7a13.35,13.35,0,0,1-.35-4.14c0-4.09,1.06-8,1.33-12.06.33-5.14-1.49-10-2.73-14.88a4,4,0,0,0-1.17-1.87,15.75,15.75,0,0,1-3.71-5.82c-1.75-4-3.2-8.07-6.29-11.47-1.68-1.85-3.56-4.1-3.95-6.91A23.18,23.18,0,0,0,8,281.83c-1.65-3.91-3.82-7.88-3.79-12.08,0-5.74-.63-11.42-.72-17.14-.07-4.44-.09-9-1.26-13.32A234.662,234.662,0,0,1,8.84,192.5,246.91,246.91,0,0,1,53.58,99.06c4.44-5.8,8.91-11.6,14.29-16.6.24-.23.43-.55.72-.69A10.11,10.11,0,0,0,73.67,77c1.36-2.61,4-4.7,6.33-6.63,2.64-2.15,4.42-5.2,7.45-6.9-.14.67-.28,1.35-.28,1.37.31,1.7,1.81-.84,1.76,1.26A57.122,57.122,0,0,0,81,72.05c-2.79,2.32-2.89,2.9-2.69,7.14,4.42-3.74,7.17-8.68,10.66-13,.75,0,1.31-.23,1.46-1h0c1.91-.08,2.43-2,3.86-2.87a33.58,33.58,0,0,0,5.5-4.59c3.84-3.52,6.79-8,11.41-10.67a93.717,93.717,0,0,0,7.72-5.47c.62-.45,1.6-.9.54-1.88l14-8.17c1,1.33,2,.26,2.81-.14,2.17-1,4.16-2.53,6.41-3.25a39.79,39.79,0,0,0,8.74-3.46,45.35,45.35,0,0,1,9.1-4.5,42.42,42.42,0,0,0,9.88-4.47,1.88,1.88,0,0,0,.46-.14l.65-.27,2.35-.82.57-.24a1.16,1.16,0,0,0,.44-.12l.6-.35c5.76-1.67,11.47-3.56,17.39-4.68h1.9l.34.41c-3.13.26-5.53,2.16-8.22,3.46-3.65,1.76-7.58,3-11.37,4.43-2.28.89-4.62,1.46-6.76,2.93-1.44,1-3.74.91-5.55,1.73-1.28.58-1.5,2.18-3.2,2.49-8,1.49-14.73,6-21.27,10.5-3.74,2.56-8.82,4.35-9.42,10.08a2.29,2.29,0,0,0,.73,0,6,6,0,0,0,1.15-.45c5.57-3.09,11-6.52,17-8.75a2.34,2.34,0,0,0,.43-.26,14.2,14.2,0,0,1,6.29-2.13,31.74,31.74,0,0,0,11.3-2.73,8.81,8.81,0,0,1,4.08-.95c5.08.19,9.89-1.18,14.76-2.37-.36-1-1.43-.44-1.85-1.21,1.09-.19,2-1.11,3.06-.78,2.53.79,3.74.42,4.75-1.78.2-.41.08-1.23.76-1,2.73.76,4.61-1.56,7.19-1.86,4.63-.54,8.3-4,12.77-5.63s8.73-3.46,13.45-4.15a5.1,5.1,0,0,0,3.15-1c-1.8-.63-3.69.32-5-1.28h3.06c.54,0,1.33.13,1.37-.69s-.72-.83-1.28-.83h-7.47a3.11,3.11,0,0,1-2.52-.53c1.36-.8,3-.58,4-1.75-1.23-.64-2.59.11-3.61-.75a280.843,280.843,0,0,1,32.8-2.21,241.518,241.518,0,0,1,53,5.45c5.43,1.18,10.79,2.69,16.2,3.94,1.85.42,3.27,2,5.3,1.81a4.54,4.54,0,0,1-4.86.25c-3.68-1.7-7.49-2.95-12-2.05,1.2.79,3.21.94,3.2,1.87-.06,3.51,2.84,3.55,5.13,4.68l-2.49,1.11,5.56,2.49c-1.94,0-3.25,1-3.28,1.65-.06,1.4,1.65,1.29,2.66,1.69,1.47.59,2.91,1.15,3.7,2.65l-.09.12c-2.93-1.85-6.41-2.64-9.18-4.85a5.28,5.28,0,0,0-4.9-1c3,5.25,8.41,6.88,13.55,9-4.69,0-9-2.34-14.36-1.35l2.86,1.24a.79.79,0,0,1,.49,1c-.16.54-.65.48-1,.29-1.09-.55-2,.17-3,.21-1.71.08-3.5,3.11-5.26,0-.26-.46-1.05.08-1.54.42-1,.71-2.06,1.39-3.09,2.08-.7.47-1.56.59-1.24,2,.26,1.15-1.24,1.24-2,1.08-.93-.19-2.66-.68-2-1.84.84-1.46-.29-1.39-.81-1.6a5.77,5.77,0,0,0-3.44-.17,16.681,16.681,0,0,0,1.17,2.39c.63.88,2.61,1.07,2,2.44-.47,1-1.88-.14-2.91-.1-1.6.08-2.23,1.31-3.14,2.21-.48.48,0,.87.38,1.23s1,.59.62,1.16-.94.51-1.57.34c-1.19-.33-2.41-.58-3.63-.85-.48-.11-1-.24-1.28.36s.29.69.57,1c.47.46,1,1.54.29,1.42-1.53-.28-3.7,0-4.44-1.69-1-2.18-2.06-4-4.43-5.08a81.206,81.206,0,0,1,8.08,1.07c2,.3,4.47.29,5-1.72s-2-2.64-3.69-3.21A53.3,53.3,0,0,0,263.89,32a1.65,1.65,0,0,1-1.25-.71c-1.36-2.82-3.8-2.34-6.24-2.3-2.29.05-4.31,1.46-6.29,1.58-6.12.36-11,3.4-15.54,6.73-6.53,4.78-12.78,9.8-20.84,11.85-1.46.37-3.09,1-3.73,2.65a43.563,43.563,0,0,0-2.42,7.06c-.57,2.74.53,3.92,3.4,3.88,2.7,0,4.66-1.68,6.77-2.93,1.49-.89,2.16-.51,2.49.92.74,3.23,1.48,6.46,2,9.72.33,2,1.77,3,3.23,1.73s2.57-3,5-2.1c.6.22.87-.65,1.22-1.09a12.65,12.65,0,0,0,2.07-4.5c.47-1.63,1-3,3-3.42,1.45-.26,2.14-1.84,2.76-3s-1-1.51-1.52-2.23a3.17,3.17,0,0,1-.49-3.78c1.41-3.11,4.57-3.66,6.92-5.38.84-.61,2-.84,2.35-2.06a5.05,5.05,0,0,1,7.09-3c1.33.67,1.71,1.26.16,2.19C252,45,250,46.33,248,47.74c-1.38,1-2,6.64-1.07,7.94a2.35,2.35,0,0,0,.37.33,6.21,6.21,0,0,0,6.95,1.61,48.564,48.564,0,0,1,5.82-1.28,5.13,5.13,0,0,1,4.24.91c.32.22.42.55.11.82a5.44,5.44,0,0,1-4.34,1.49,2.09,2.09,0,0,1-.5-.08c-2.25-.75-4.45-.23-6.61.38-.65.19-1.6.1-1.7,1.16A1.69,1.69,0,0,0,252.53,63c1.23.28,1.36,1,1.15,2s0,1.95-1.13,2.26a2,2,0,0,1-2.39-.89c-1.25-1.91-2.58-.91-3.74,0a3.68,3.68,0,0,0-1.31,3.36c.34,2.63,0,4.72-3.25,4.9a.9.9,0,0,0-.57.44c-1,1.6-2.16,1.4-3.55.46a4.19,4.19,0,0,0-4-.47c-2.19.79-4.49,1.27-6.64,2.13-1.64.66-3,.95-4.48-.37a3.33,3.33,0,0,0-3.86-.44,3.62,3.62,0,0,1-5-3.82c.14-1.61,1.43-2.15,2.54-2.8.4-.23,1.28-.54,1.09-.71-1.74-1.55.56-2.69.43-4.06-1.47-.19-2.33,1-3.53,1.22-3.23.61-4.56,2.34-4.53,5.69v4c0,1.34-1.22,2.36-2.24,2-2.18-.7-4.08.39-6.1.5a7.34,7.34,0,0,0-6.07,3.4,9.35,9.35,0,0,1-7.65,4.44,3.67,3.67,0,0,0-2.88,1.68c-2,2.85-8,4.38-11.2,2.91-.08.42-.19.81-.23,1.21-.18,1.87-.8,2.83-2.93,1.89a6.27,6.27,0,0,0-3.88-.49c-1.37.27-2.56.32-2.88,2.07s1.24,1.7,2.08,2.21c2.4,1.46,4.36,6.07,3.37,8.44a61.283,61.283,0,0,1-2.82,6.1,5,5,0,0,1-5.25,2.86,76.34,76.34,0,0,1-12.93-2.25c-2.84-.81-4.79.15-7,1.1a1.56,1.56,0,0,0-1,1.21c-1.28,5.16-2.31,10.42-6.63,14.25-1.21,1.07-2.76,2.81-1.46,4.52,1,1.25.54,2.09.24,3.13s-1.33,2.08-1.4,3.39a12.71,12.71,0,0,0,3.17.57c3.66-.28,3.65-.35,4.36,3,.46,2.23,1.42,2.68,3.23,1.32a7.81,7.81,0,0,1,7-1.49,9.382,9.382,0,0,0,2,.21c3.83.06,6-3.26,9.06-4.7,1-.46,1.55-2.24,2.83-3a1.28,1.28,0,0,0,.78-1.15,10.73,10.73,0,0,1,8.28-9.37c2.63-.51,5.24-1.32,6.26-4.19,1.31-3.65,4-5.26,8-4.45,1.38.29,2.75.62,4.12,1,.57.15,1.09.38,1.65,0,2-1.54,4.54-1.92,6.57-3.45,2.29-1.73,6.1,0,6.36,2.84.22,2.29,1.44,3.92,2.71,5.71,2.49,3.5,6.69,4.33,9.85,6.76a23.239,23.239,0,0,1,4.5,4.64,5,5,0,0,1,.18,6.17c-.3.46-.83,1.26.11,1.67.65.28,1-.3,1.41-.77,1-1.24,1.39-2.92,3.3-3.47a1.5,1.5,0,0,0,0-2.64c-1.06-.63-1.64-1.19-.87-2.55s1.68-1.25,2.9-1a6.06,6.06,0,0,1,3,2.11c1.06-1.38.47-2.1-.47-3.08-2.35-2.46-6.66-2.25-8.05-6,0-.11-.46-.08-.71-.13-2.89-.58-4.5-2.65-5.54-5.13a7.54,7.54,0,0,0-2.6-3.51,4.27,4.27,0,0,1-1.18-6,3.5,3.5,0,0,1,3.06-1.37c1.07,0,1.41.87,1.43,2,0,.85.42,1.43,1.45.74,1.84-1.24,2.74-.43,2.93,1.53a6.25,6.25,0,0,0,3.46,5.16c3,1.44,5.62,3.51,8.61,5,2.24,1.09,3.66,2.74,2.52,5.61a4.07,4.07,0,0,0,.34,4c2.67,3.63,5.61,7.1,6.56,11.73a6.55,6.55,0,0,0,4.2,5.15,2.68,2.68,0,0,0,2.41,0c.84-.58-.12-1.33-.11-2s-1.16-1.62.1-1.81c1.84-.27,1-1.6,1.12-2.36,1.18-.37,2.34,1.3,3-.21.62-1.32-.6-2.09-1.48-2.84-.51-.43-1.07-.8-1.58-1.22s-1-.74-.57-1.21c.93-1.08-.05-1.59-.49-2.33a17.4,17.4,0,0,1-1.06-2.22c-.19-.47-.3-1.06.17-1.38s.9.15,1.2.54c1.45,1.81,3.05,1.35,4.74.56-.24-1.22-1.71-1.38-1.61-2.69a13.167,13.167,0,0,1,3.58-.87c2,.07,4.41-.75,5.48,2,.5,1.31,1.23.56,1.89,0,1.87-1.5,3.57-3.33,6.35-2.85.51.08,1.28.19,1.48-.56.26-1-.73-.93-1.25-1.18a5.37,5.37,0,0,1-1.88-8.63c.32-.38.88-.72.94-1.13.37-2.35.64-4.35,3.08-6,1.22-.83,2.43-3.17,3.2-5.13.56-1.42,2.5-1.91,3.25-1,1.06,1.33,2.36,1,3.51,1.47s2.75-.3,3,1.11c.19,1.12-1.7,1-2.34,1.87a2.378,2.378,0,0,0-.22.55l2.38.7c.55.16,1.21.19,1.2,1,0,2.69,1.47,2.21,3,1.36a17,17,0,0,1,5.18-2.36c.64-.12,1.53-.23,1.35-1.11s-1.11-.47-1.68-.42c-1.9.16-3.53-.27-3.55-2.44,0-2,1.78-2.37,3.33-2.57a7.86,7.86,0,0,0,3.2-1.15,12.16,12.16,0,0,1,6.08-1.48c-1.11,1.66-2.77,1.45-3.58,2.53,1.89,2,1,4.23-2.35,5.89A13.58,13.58,0,0,0,302.3,113c5,1.24,8.57,5.28,13.46,6.84a3.913,3.913,0,0,1-1.25,7.54c-3.53-.06-7,1.47-10.6,0-1.83-.74-3.76-1.26-5.58-2.08a14.12,14.12,0,0,0-14,1.1,11.27,11.27,0,0,1-8.1,2.08c-1.76-.25-3.09,0-3.52,2.06-.24,1.17-1.31,1.11-2.23,1.1a7.8,7.8,0,0,0-6.84,3.21c-.69,1-1.25,1.62,0,2.37,1.54.91,1.17,2,.37,3.13s-.81,1.74.29,2.48a11.82,11.82,0,0,1,3.71,4.6c.48.9,1.07,1.85,2.29,1.47,2.37-.71,4.18.46,6.05,1.56a2.68,2.68,0,0,0,4-.86,2.07,2.07,0,0,1,2-1.09,6.92,6.92,0,0,1,4.89,1.36c2,1.57,6.72,1,8.43-.84q2.36-2.52,5.12-.26c1.63,1.32,3.36,7.17,2.48,9.11a42.65,42.65,0,0,0-3.15,11.47c-.7,4.64-2.36,5.82-6.3,5.71-1.6,0-3.32-2.24-4.86.12-.19-.15-.4-.27-.58-.44a6.71,6.71,0,0,0-8.8-.54,6.928,6.928,0,0,1-7,1.21c-3.87-1.44-7.79-2.95-12.09-2.39-.39,0-1,0-1.18-.23-1.38-1.73-3.41-1.4-5.22-1.8-1-.23-2.53-.34-3-1-1.63-2.53-4.25-2.35-6.6-2.8-4.2-.8-8.4,3.22-7.7,7.35.32,1.91-.93,2.74-2.07,3.64a2.7,2.7,0,0,1-3.4.43A43,43,0,0,0,220,174.1c-1.08-.29-1.94-.73-2.13-1.8-.51-2.83-2.68-3.79-5-4.68a36.64,36.64,0,0,0-7.16-1.58,12.43,12.43,0,0,1-7.29-4.48c-1.67-1.93-2.31-2.49-.28-4.08a4.85,4.85,0,0,0,1.75-6.1,2.72,2.72,0,0,1,.7-3c.57-.6,1.6-.95,1.48-2.09-1.17-.36-2.74,1.48-3.07.39-1-3.4-3-1.9-4.86-1.34s-3.57,1.36-5.31.47a8.2,8.2,0,0,0-7.15-.11,4.12,4.12,0,0,1-2.36.53c-6.88-1.19-13.68-1.49-20.1,2a5.57,5.57,0,0,1-1.43.37c-4.54,1-9,3.48-13.73.91h-.25a2.56,2.56,0,0,1-2.52-1.16c-1.49-1.88-2.76-1.9-4.15,0a23.37,23.37,0,0,1-10.57,8.28c-4.86,2-7.45,6.41-8.59,11.23-.75,3.13-1.7,5.76-4.53,7.18-2.48,1.24-4.19,3.93-7.26,4a6.5,6.5,0,0,0-5.07,2.66c-1.18,1.37-1.93,3.14-3.73,3.94a7.52,7.52,0,0,0-4.12,5,7.7,7.7,0,0,1-3,4.13c-2.14,1.56-4.14,3.51-4.83,6.18a6.84,6.84,0,0,1-2,3.37c-2.27,2.14-3.34,4.39-1.84,7.44a3.9,3.9,0,0,1,.43,2.65c-1.52,4.28-.76,8.95-2.43,13.17-.52,1.3-1.58,2.52-1.69,3.83-.25,3.15-2,5.37-4,7.45a1.21,1.21,0,0,0-.32,1.66,11.77,11.77,0,0,1,.89,7c-.53,3.4-.57,7,2.74,9.49a5.87,5.87,0,0,1,2.28,3.2c.55,3.52,2.94,6.09,4.25,9.19a9.83,9.83,0,0,1,1,4.32,8.29,8.29,0,0,0,2.73,6.5c4.3,4.07,7.49,9,11.46,13.38,2.46,2.69,5.11,5.48,9.42,3.68,6.31-2.63,12.3-1,18,1.75a7.82,7.82,0,0,0,6.9.06A40.33,40.33,0,0,1,154,295.71a8.55,8.55,0,0,1,6.36,3.62,24.89,24.89,0,0,1,1.48,3.12c2.11,3.79,2.56,5.36,8.32,4.24,1.95-.39,4.06-.36,6-.85,1.1-.28,1.42.43,1.8,1.24a7.26,7.26,0,0,0,3.05,3.71c1.41.79,2.7,2.64,2.15,4.43-1.42,4.71-1.17,9.73-2.9,14.36-.35.93-.58,1.91-1,2.82a3.34,3.34,0,0,0,.36,3.24A54.562,54.562,0,0,0,189,347.28c2.83,2.81,5.61,5.74,6.84,9.67.62,2,1.81,3.64,2.61,5.44,1.33,3.05,4.2,6.06,1.79,9.89-.16.25,0,.83.2,1.17a39.937,39.937,0,0,0,2.5,4.6c2.2,3.22,2.05,6.21-.7,9.05a16.639,16.639,0,0,0-3.12,4.75c-1.25,2.66-1.73,5.53-2.51,8.3a9.36,9.36,0,0,0,1.78,8.91,50.225,50.225,0,0,1,6.67,9.26,14.46,14.46,0,0,0,3.6,4.42c1.85,1.42,2.25,3.28,2.66,5.38,1,5.45,2.88,10.82,6.84,14.69,3.2,3.13,6.4,6.26,9.4,9.58,1.36,1.5,4.45,2.4,2.34,5.44-.05.07.13.29.18.44,1.22,3.3,5.61,5.76,9,4.88,5.58-1.44,11.17-2.45,17-1.86a16.84,16.84,0,0,0,4.91-.23,43.94,43.94,0,0,0,21.81-11.24,17.14,17.14,0,0,1,4.63-3.34c3.74-1.66,4.55-5.56,5-8.66a3.52,3.52,0,0,1,2.47-3.32,25.072,25.072,0,0,1,5.1-2c4.45-.93,5.91-4,6.25-8a6,6,0,0,0-.47-3.14c-2.35-5.14-2.52-5.41,2.12-8.86s8.93-7.43,14.59-9.34a14.67,14.67,0,0,0,6.37-3.79c1.94-2.15,4.39-4.49,4.44-7.26.1-5,.38-9.92.7-14.87a3.15,3.15,0,0,0-.89-2.71,11.13,11.13,0,0,1-2.84-12.88c.43-1,.59-1.86-.56-2.25-2.88-1-2.23-2.88-1.58-5,.82-2.66,2.86-4.62,4-7s2.93-4.26,3.15-6.94c0-.55.68-.66,1-1,2.06-1.84,4.53-3.45,6-5.7a64.669,64.669,0,0,1,13.55-15.16c3.3-2.67,6.68-5.28,9.3-8.64a86.29,86.29,0,0,0,15.78-32.78c1-4.21,2.25-8.52,1.64-13-.09-.62.1-1.41-.77-1.63a1.33,1.33,0,0,0-1.5.67c-.82,1.43-2.32,1.78-3.62,2.49-1.87,1-4.16.82-5.9,1.9-4.65,2.9-10,4-14.93,6.13-1.68.71-3.45,1.06-4.73-.72a10.48,10.48,0,0,0-5.59-4.4c2.55-1.06,4-2.56,2-4.23-5.22-4.22-9.36-9.72-15.51-12.84a9.49,9.49,0,0,1-4.79-6c-.86-2.72-1.86-5.89-4.44-7.27-4-2.13-4.92-5.68-6.08-9.42-.68-2.16-.14-4.31-.5-6.41-.64-3.75-3.7-5.58-6.44-7.53a4,4,0,0,1-1.79-4.29,2.82,2.82,0,0,0-.86-2.84,55,55,0,0,1-9-13.41c-1.83-3.82-4.95-6.92-6-11.12l.34-.3c1.78,2.46,2.78,5.47,5.4,7.36.93.68,1.33.71,1.83-.33.72-1.5,1.51-3,2.27-4.44.08,1.87-.47,3.77,2.35,3.86.33,0,.65.71,1,1.09a30.71,30.71,0,0,1,3.41,4.29c1.92,3.52,5.58,5.89,6.47,10.13a3.81,3.81,0,0,0,2.41,2.67c4.63,1.76,6.56,5.53,7.12,10.17a11.34,11.34,0,0,0,6,9.12,9.62,9.62,0,0,1,4.76,5.2,14.08,14.08,0,0,0,4.22,6.37c2.75,2.25,4.66,5.08,4.92,8.46a47.227,47.227,0,0,0,1.68,7.66c.53,2.15,1.68,4.07,1.73,6.43.05,1.76,1.31,2.89,3.46,2.56,2.41-.37,4.8-.61,6.14-3.08a2.77,2.77,0,0,1,2.43-1.53c4.57-.14,7.16-4.71,11.57-5.22.12,0,.22-.23.32-.37,2.21-3.36,5.78-4.85,9.11-6.72,2.22-1.25,4.53-2.61,4.23-5.81-.11-1.26,1-1.82,1.83-2.1,2.49-.82,4.11-3.33,7-3.43a2,2,0,0,0,1.67-2.2,2.55,2.55,0,0,1,2.5-3.06,1.52,1.52,0,0,0,1.52-1.87c-.3-2,.86-3.23,2.24-4.1s1.31-1.71,1-3.1c-.38-1.9-1.15-4.14,1.55-5.28.33-.14.52-.86.56-1.32.09-1.29.84-2.35,1.14-3.52.48-1.89,1.92-3.91.18-5.84-2.26-2.51-4.46-5.22-8.39-4.95a3.11,3.11,0,0,1-1.83-.71c-3.72-2.28-4.88-6-5.73-10.18-1.47,3.07-3,5.91-4.22,8.87-.91,2.2-2.22,3.31-4.68,3.1a7.94,7.94,0,0,0-2.93.51c-2.78.85-4.36-.33-4.36-3.38a12.178,12.178,0,0,0-.34-3.71,2,2,0,0,0-1.49-1.54c-.95-.14-1.12.76-1.48,1.41s-.06,1.78-1,1.78c-.73,0-1-1-1.49-1.56a4.36,4.36,0,0,1-.85-2.55,2.93,2.93,0,0,0-1.49-2.41c-4.66-2.46-7.43-6.6-9.62-11.19-.38-.8-1.16-2.28-.7-2.47,1.27-.51,2.26-2,3.4-1.91,2.48.15,5.15,0,6.59,3.14,1,2.12,2.93,3.79,4.45,5.65a3.09,3.09,0,0,0,2,1.34c2.31.3,4.13,1.61,6,2.87,3.27,2.19,5.84,2,8.76-.44a9.841,9.841,0,0,1,2.34-1.39c1.22-.53,2.48-.34,2.92,1,1.43,4.27,4.47,5.4,8.58,4.85a9.71,9.71,0,0,1,2,.23c2.4.18,5,.75,7.18-.05,4.15-1.47,8.58-2.09,12.52-4.14.67-.35,1.34-.76,2,0,1.18,1.27,2.83,2.09,3.53,3.8.51,1.24,1.65,1.6,2.68,2.28,2.49,1.63,6.74,2,5.93,6.64a1.09,1.09,0,0,0,.46.83c1.67,1.31,2.84,3.44,5,3.85s2.58-2.22,4-3.25a2.647,2.647,0,0,1,.4-.2,31.632,31.632,0,0,1,2.08,5.52,95,95,0,0,0,6.81,18.93,80.744,80.744,0,0,1,5.09,12.08,13.165,13.165,0,0,0,1,2.54,56.749,56.749,0,0,1,5.23,13.41,6.93,6.93,0,0,0,3.08,4.21c1.2-1.45.31-3.35,1.24-4.64,2.1-2.91.29-6.61,2.11-9.53-1-6.12-.08-12.48-2.41-18.45-.78-2-1.45-4.46-.45-6.31a26.8,26.8,0,0,0,2.31-7.58c1.22-5.7.75-11.6,2.39-17.22a6.15,6.15,0,0,0-.33-4.64c-.85-1.58-.34-2.81.63-4.09,1.36-1.78,2.84-3.57,1.39-6-.2-.35-.25-.9.21-1.08.75-.29,1.06.43,1.28.89A96.209,96.209,0,0,0,484,190.2a33.58,33.58,0,0,1,4.4,12.63c.09.54.08,1.32.93,1.16s.54-.93.56-1.46v-3.09c2.89,8.34,5.39,16.71,6.36,25.45-.11-5.3-1-10.51-1.63-15.76.2,1.37,1.2,2.32,1.72,3.5.07.44.14.89.22,1.33a1.06,1.06,0,0,0,.26,1.18c1.58,7,1.77,14.09,2.47,21.16-1.11.09-.81-.82-.93-1.38-.6-2.77-.49-5.69-1.92-8.29.63,6.83,2.29,13.52,2.75,20.36.09,1.32.17,2.64.26,4l-.5,1.52c-.93-.9-.44-2.2-.92-3.23-.17-.34,0-.91-.51-1s-.86.42-1.12.83c-.4.64-.09,1.3,0,1.93.49,2.59.91,5.2,1.57,7.75.92,3.58,0,7.26.82,10.82v.71Zm-203-117.39c-2.52.39-5,.82-7.25,2.45.76,1.82,2,2.23,4.05,1.58s2.7-2.26,3.17-4.07l.47-.06-.11-.22ZM374,384.42a10,10,0,0,0-1.4-6.84c-.88-1.36-1.23-.92-2.11,0-1,1.08-.51,2.59-1.4,3.65-5,6-10.06,12-17.94,14.66-3.57,1.19-6.56,6.17-5.27,9.65,1.74,4.71-1.21,7.55-3.69,10s-3.24,4.55-2.46,7.58a5.73,5.73,0,0,1,0,2.67c-.33,1.7.18,2.81,2.08,3.28,3.24.81,9.58-1.18,11.45-4a265.415,265.415,0,0,0,14.65-25.16c1.38-2.68,3.93-5.24,3.26-8.84-.08-.44.35-1.67,1.15-.69,1,1.23,1,.17,1.44-.34C375.28,388.07,373.37,386,374,384.42ZM172,84c-3,.37-4.71,2.08-6.79,3.08-.42.21-1,.43-.79,1,.32.77.92.29,1.47.2a71.5,71.5,0,0,1,15.71-1.22c3.34.29,3.42-3.39,5.46-4.74a3.21,3.21,0,0,0,1.05-1.65c.2-.61-.48-.86-.92-.92-1.86-.3-1.84-1.46-1.62-3,.15-1,.7-2.32-.29-3a2.73,2.73,0,0,1-1-2.86,2.55,2.55,0,0,0-1.93-3c1-.78,1.83-1.38,2.63-2,1-.69,2.24-1.62,2.06-2.63-.23-1.24-1.87-.32-2.79-.74-.1,0-.13-.24-.2-.37.48-.92,1.95-.93,2.09-2.21-4.86-.87-10.31,3.51-10.63,8.47,0,.24-.12.51.26.52,1.83,0,.74.69.24,1.2-1,1.07-.76,1.69.63,2A2.06,2.06,0,0,1,178.22,75a2.17,2.17,0,0,1-3,1.51c-2.41-.74-3.2.7-3.37,2.61A1.71,1.71,0,0,1,170.54,81c-.65.22-1.63,0-1.68,1.1-.05,1.27,1.15,1,1.78,1.34A10.84,10.84,0,0,0,172,84Zm-15-3.4c3.9,1.88,10.53-.5,12.58-4.35a7.48,7.48,0,0,1,1.73-2.4c.86-.72,2-1.28,1-2.77s-2.15-1-3.28-.57c-2,.83-3.91,1.8-5.85,2.75-.43.21-1.08.56-1.11.89-.39,3.12-2.97,4.57-5.07,6.41ZM166.14,41c4.17,3.45,8.26.91,12.28.48,3-.31,4.38-2.58,5.59-5.05-.26-.08-.51-.27-.7-.22-2.54.7-5.18,0-7.73.59-.45.1-1.06.49-1.21-.26-.41-2.07-1.71-1.25-2.84-.93s-2.46.79-1.35,2.46C168.11,38.05,168,40.66,166.14,41ZM300.28,27.43c-1.87-.73-3.73-.92-5.21-2.11-2.55-2.07-3.14-5.73-1.15-7.52.44-.4,1.44-.65.83-1.42a1.72,1.72,0,0,0-2.26-.47c-.94.73-2.15.92-3,1.61s-2.09,1.38-.92,3.15a9.78,9.78,0,0,1,1.4,3.44c.13.73.2,2.3,1.55,2.49C294.36,27,297.07,29,300.28,27.43Zm174,219.9c-.25,5.91-.41,11.36,1.81,16.73,3.81-3.63,2.85-12.69-1.84-16.73Zm-254-105.75c-3.42-.11-6.44,1-9.5.16-.86-.25-1.74-.37-2.21.86-.55,1.43.44,1.72,1.33,2.14a71.711,71.711,0,0,1,6.7,3.15c1.62.93,2.31.17,2.24-1.12-.16-1.83.59-3.33,1.37-5.19ZM194,135.65c-.1,1.07.56,1.31,2.17,1,3.55-.63,3.31-3.61,3.84-5.95.24-1-.52-3-1.67-2.89s-3.2.15-3.41,1.55C194.61,131.25,194.32,133.13,194,135.65ZM253.6,13.17a5,5,0,0,0-2.72-.77c-3.18-.28-6.15,1.59-9.38.95-.44-.08-1.16.08-1.18.66,0,1.6,1.24,2.57,2.13,3.64.64.77,1.55.5,2.37-.27,2.12-2,4.43-3.65,7.6-3.36a1,1,0,0,0,1.18-.85ZM259.68,157a8.77,8.77,0,0,0,1.11-.07c1-.16,2.58.34,2.52-1.21-.05-1.07-1.53-.42-2.32-.69-2.47-.83-5.32,1-7.62-1.14-.45-.42-.69.13-.86.49-.33.65-.21,1.17.59,1.23C255.39,155.82,257.41,157.3,259.68,157Zm-59-35.33c-.17-.33.43-1.22-.41-1.47-.44-.12-1.07.25-1.56.5a2.8,2.8,0,0,0-1.43,1.63c-.42,1.28-.57,2.88.64,3.55,1.53.83,1.58-1.13,2.26-1.87a3,3,0,0,0,.55-2.31Zm102-111.14.09-.63-13.4-1.65c4.24,2.22,8.86,1.9,13.37,2.31Zm-81,61c-.1-1-.48-1.65-1.42-1.38-1.09.3-2.75-.1-3,1.47a2.17,2.17,0,0,0,2.09,2.3c1.28.02,1.81-1.46,2.41-2.35ZM77.29,79.87a1.31,1.31,0,0,0,.18-.38l-.28-.17a1.08,1.08,0,0,0-.17.36ZM314.5,22.37l-.09.09h.13ZM286,34l.09-.1h-.15Z" transform="translate(52.001 -754)" fill="#09234f"/>
    <g id="Group_46" data-name="Group 46">
      <path id="Path_2" data-name="Path 2" d="M496.38,212.63c-.52-1.18-1.52-2.13-1.72-3.5.62,5.25,1.52,10.46,1.63,15.76-1-8.74-3.47-17.11-6.36-25.45v3.09c0,.53.22,1.3-.56,1.46s-.84-.62-.93-1.16A33.579,33.579,0,0,0,484,190.2a96.193,96.193,0,0,1-5.91-11.12c-.22-.46-.53-1.18-1.28-.89-.46.18-.41.73-.21,1.08,1.45,2.46,0,4.25-1.39,6-1,1.28-1.48,2.51-.63,4.09a6.15,6.15,0,0,1,.33,4.64c-1.64,5.62-1.17,11.52-2.39,17.22a26.8,26.8,0,0,1-2.31,7.58c-1,1.85-.33,4.3.45,6.31,2.33,6,1.38,12.33,2.41,18.45-1.82,2.92,0,6.62-2.11,9.53-.93,1.29,0,3.19-1.24,4.64a6.93,6.93,0,0,1-3.08-4.21,56.755,56.755,0,0,0-5.23-13.41,13.163,13.163,0,0,1-1-2.54,80.734,80.734,0,0,0-5.09-12.08,95,95,0,0,1-6.81-18.93,31.633,31.633,0,0,0-2.08-5.52,2.648,2.648,0,0,0-.4.2c-1.39,1-1.64,3.69-4,3.25s-3.37-2.54-5-3.85a1.09,1.09,0,0,1-.46-.83c.81-4.66-3.44-5-5.93-6.64-1-.68-2.17-1-2.68-2.28-.7-1.71-2.35-2.53-3.53-3.8-.69-.74-1.36-.33-2,0-3.94,2.05-8.37,2.67-12.52,4.14-2.22.8-4.78.23-7.18.05a9.711,9.711,0,0,0-2-.23c-4.11.55-7.15-.58-8.58-4.85-.44-1.33-1.7-1.52-2.92-1a9.84,9.84,0,0,0-2.34,1.39c-2.92,2.43-5.49,2.63-8.76.44-1.87-1.26-3.69-2.57-6-2.87a3.09,3.09,0,0,1-2-1.34c-1.52-1.86-3.47-3.53-4.45-5.65-1.44-3.11-4.11-3-6.59-3.14-1.14-.06-2.13,1.4-3.4,1.91-.46.19.32,1.67.7,2.47,2.19,4.59,5,8.73,9.62,11.19a2.93,2.93,0,0,1,1.49,2.41,4.36,4.36,0,0,0,.85,2.55c.5.54.76,1.57,1.49,1.56.95,0,.68-1.16,1-1.78s.53-1.55,1.48-1.41a2,2,0,0,1,1.49,1.54,12.18,12.18,0,0,1,.34,3.71c0,3,1.58,4.23,4.36,3.38a7.94,7.94,0,0,1,2.93-.51c2.46.21,3.77-.9,4.68-3.1,1.23-3,2.75-5.8,4.22-8.87.85,4.15,2,7.9,5.73,10.18a3.11,3.11,0,0,0,1.83.71c3.93-.27,6.13,2.44,8.39,4.95,1.74,1.93.3,4-.18,5.84a24.159,24.159,0,0,0-1.14,3.52c0,.46-.23,1.18-.56,1.32-2.7,1.14-1.93,3.38-1.55,5.28.27,1.39.34,2.23-1,3.1s-2.54,2.12-2.24,4.1A1.52,1.52,0,0,1,398.1,230a2.55,2.55,0,0,0-2.5,3.06,2,2,0,0,1-1.67,2.2c-2.91.1-4.53,2.61-7,3.43-.85.28-1.94.84-1.83,2.1.3,3.2-2,4.56-4.23,5.81-3.33,1.87-6.9,3.36-9.11,6.72-.1.14-.2.36-.32.37-4.41.51-7,5.08-11.57,5.22a2.77,2.77,0,0,0-2.43,1.53c-1.34,2.47-3.73,2.71-6.14,3.08-2.15.33-3.41-.8-3.46-2.56-.05-2.36-1.2-4.28-1.73-6.43a47.233,47.233,0,0,1-1.68-7.66c-.26-3.38-2.17-6.21-4.92-8.46a14.08,14.08,0,0,1-4.22-6.37,9.62,9.62,0,0,0-4.76-5.2,11.34,11.34,0,0,1-6-9.12c-.56-4.64-2.49-8.41-7.12-10.17a3.81,3.81,0,0,1-2.41-2.67c-.89-4.24-4.55-6.61-6.47-10.13a30.709,30.709,0,0,0-3.41-4.29c-.31-.38-.63-1.08-1-1.09-2.82-.09-2.27-2-2.35-3.86-.76,1.48-1.55,2.94-2.27,4.44-.5,1-.9,1-1.83.33-2.62-1.89-3.62-4.9-5.4-7.36-.18-.32-.37-.63-.56-.94s0-.77-.4-.59-.12.55.16.76c.16.36.31.71.46,1.07,1.1,4.2,4.22,7.3,6,11.12a55,55,0,0,0,9,13.41,2.82,2.82,0,0,1,.86,2.84,4,4,0,0,0,1.79,4.29c2.74,2,5.8,3.78,6.44,7.53.36,2.1-.18,4.25.5,6.41,1.16,3.74,2.11,7.29,6.08,9.42,2.58,1.38,3.58,4.55,4.44,7.27a9.49,9.49,0,0,0,4.79,6c6.15,3.12,10.29,8.62,15.51,12.84,2.07,1.67.58,3.17-2,4.23a10.48,10.48,0,0,1,5.59,4.4c1.28,1.78,3.05,1.43,4.73.72,4.95-2.1,10.28-3.23,14.93-6.13,1.74-1.08,4-.87,5.9-1.9,1.3-.71,2.8-1.06,3.62-2.49a1.33,1.33,0,0,1,1.5-.67c.87.22.68,1,.77,1.63.61,4.48-.6,8.79-1.64,13a86.29,86.29,0,0,1-15.78,32.78c-2.62,3.36-6,6-9.3,8.64a64.67,64.67,0,0,0-13.55,15.16c-1.47,2.25-3.94,3.86-6,5.7-.35.32-1,.43-1,1-.22,2.68-2.1,4.64-3.15,6.94s-3.14,4.37-4,7c-.65,2.11-1.3,4,1.58,5,1.15.39,1,1.27.56,2.25a11.13,11.13,0,0,0,2.84,12.88,3.15,3.15,0,0,1,.89,2.71c-.32,4.95-.6,9.9-.7,14.87,0,2.77-2.5,5.11-4.44,7.26a14.67,14.67,0,0,1-6.37,3.79c-5.66,1.91-10,5.91-14.59,9.34s-4.47,3.72-2.12,8.86a6,6,0,0,1,.47,3.14c-.34,4.06-1.8,7.1-6.25,8a25.07,25.07,0,0,0-5.1,2,3.52,3.52,0,0,0-2.47,3.32c-.45,3.1-1.26,7-5,8.66a17.142,17.142,0,0,0-4.63,3.34A43.94,43.94,0,0,1,261,461.06a16.838,16.838,0,0,1-4.91.23c-5.8-.59-11.39.42-17,1.86-3.36.88-7.75-1.58-9-4.88-.05-.15-.23-.37-.18-.44,2.11-3-1-3.94-2.34-5.44-3-3.32-6.2-6.45-9.4-9.58-4-3.87-5.79-9.24-6.84-14.69-.41-2.1-.81-4-2.66-5.38a14.46,14.46,0,0,1-3.6-4.42,50.23,50.23,0,0,0-6.67-9.26,9.36,9.36,0,0,1-1.78-8.91c.78-2.77,1.26-5.64,2.51-8.3a16.64,16.64,0,0,1,3.12-4.75c2.75-2.84,2.9-5.83.7-9.05a39.941,39.941,0,0,1-2.5-4.6c-.18-.34-.36-.92-.2-1.17,2.41-3.83-.46-6.84-1.79-9.89-.8-1.8-2-3.46-2.61-5.44-1.23-3.93-4-6.86-6.84-9.67a54.56,54.56,0,0,1-9.32-11.64,3.34,3.34,0,0,1-.36-3.24c.39-.91.62-1.89,1-2.82,1.73-4.63,1.48-9.65,2.9-14.36.55-1.79-.74-3.64-2.15-4.43a7.26,7.26,0,0,1-3.05-3.71c-.38-.81-.7-1.52-1.8-1.24-2,.49-4.1.46-6,.85-5.76,1.12-6.21-.45-8.32-4.24a24.89,24.89,0,0,0-1.48-3.12,8.55,8.55,0,0,0-6.36-3.62,40.33,40.33,0,0,0-20.62,3.38,7.82,7.82,0,0,1-6.9-.06c-5.7-2.73-11.69-4.38-18-1.75-4.31,1.8-7-1-9.42-3.68-4-4.33-7.16-9.31-11.46-13.38a8.29,8.29,0,0,1-2.73-6.5,9.83,9.83,0,0,0-1-4.32c-1.31-3.1-3.7-5.67-4.25-9.19a5.87,5.87,0,0,0-2.28-3.2c-3.31-2.53-3.27-6.09-2.74-9.49a11.77,11.77,0,0,0-.89-7,1.21,1.21,0,0,1,.32-1.66c2-2.08,3.76-4.3,4-7.45.11-1.31,1.17-2.53,1.69-3.83,1.67-4.22.91-8.89,2.43-13.17a3.9,3.9,0,0,0-.43-2.65c-1.5-3-.43-5.3,1.84-7.44a6.84,6.84,0,0,0,2-3.37c.69-2.67,2.69-4.62,4.83-6.18a7.7,7.7,0,0,0,3-4.13,7.52,7.52,0,0,1,4.12-5c1.8-.8,2.55-2.57,3.73-3.94a6.5,6.5,0,0,1,5.07-2.66c3.07,0,4.78-2.74,7.26-4,2.83-1.42,3.78-4.05,4.53-7.18,1.14-4.82,3.73-9.26,8.59-11.23a23.37,23.37,0,0,0,10.57-8.28c1.39-1.92,2.66-1.9,4.15,0a2.56,2.56,0,0,0,2.52,1.16h.25c4.76,2.57,9.19.06,13.73-.91a5.57,5.57,0,0,0,1.43-.37c6.42-3.49,13.22-3.19,20.1-2a4.12,4.12,0,0,0,2.36-.53,8.2,8.2,0,0,1,7.15.11c1.74.89,3.56.06,5.31-.47s3.82-2.06,4.86,1.34c.33,1.09,1.9-.75,3.07-.39.12,1.14-.91,1.49-1.48,2.09a2.72,2.72,0,0,0-.7,3,4.85,4.85,0,0,1-1.75,6.1c-2,1.59-1.39,2.15.28,4.08a12.43,12.43,0,0,0,7.29,4.48,36.64,36.64,0,0,1,7.16,1.58c2.28.89,4.45,1.85,5,4.68.19,1.07,1.05,1.51,2.13,1.8a43,43,0,0,1,11.31,4.5,2.7,2.7,0,0,0,3.4-.43c1.14-.9,2.39-1.73,2.07-3.64-.7-4.13,3.5-8.15,7.7-7.35,2.35.45,5,.27,6.6,2.8.45.7,1.94.81,3,1,1.81.4,3.84.07,5.22,1.8.19.24.79.28,1.18.23,4.3-.56,8.22.95,12.09,2.39,2.71,1,4.85.33,7-1.21a6.71,6.71,0,0,1,8.8.54c.18.17.39.29.58.44,1.54-2.36,3.26-.16,4.86-.12,3.94.11,5.6-1.07,6.3-5.71a42.65,42.65,0,0,1,3.15-11.47c.88-1.94-.85-7.79-2.48-9.11q-2.76-2.27-5.12.26c-1.71,1.84-6.4,2.41-8.43.84a6.92,6.92,0,0,0-4.89-1.36,2.07,2.07,0,0,0-2,1.09,2.68,2.68,0,0,1-4,.86c-1.87-1.1-3.68-2.27-6.05-1.56-1.22.38-1.81-.57-2.29-1.47a11.82,11.82,0,0,0-3.71-4.6c-1.1-.74-1-1.5-.29-2.48s1.17-2.22-.37-3.13c-1.24-.75-.68-1.42,0-2.37a7.8,7.8,0,0,1,6.84-3.21c.92,0,2,.07,2.23-1.1.43-2.06,1.76-2.31,3.52-2.06a11.27,11.27,0,0,0,8.1-2.08,14.12,14.12,0,0,1,14-1.1c1.82.82,3.75,1.34,5.58,2.08,3.58,1.42,7.07-.11,10.6,0a3.913,3.913,0,0,0,1.25-7.54c-4.89-1.56-8.45-5.6-13.46-6.84a13.58,13.58,0,0,1-4.31-2.52c3.39-1.66,4.24-3.85,2.35-5.89.81-1.08,2.47-.87,3.58-2.53a12.16,12.16,0,0,0-6.08,1.48,7.86,7.86,0,0,1-3.2,1.15c-1.55.2-3.35.6-3.33,2.57,0,2.17,1.65,2.6,3.55,2.44.57,0,1.49-.5,1.68.42s-.71,1-1.35,1.11a17,17,0,0,0-5.18,2.36c-1.52.85-3,1.33-3-1.36,0-.81-.65-.84-1.2-1l-2.38-.7a2.378,2.378,0,0,1,.22-.55c.64-.86,2.53-.75,2.34-1.87-.23-1.41-2-.69-3-1.11s-2.45-.14-3.51-1.47c-.75-1-2.69-.46-3.25,1-.77,2-2,4.3-3.2,5.13-2.44,1.65-2.71,3.65-3.08,6-.06.41-.62.75-.94,1.13a5.37,5.37,0,0,0,1.88,8.63c.52.25,1.51.16,1.25,1.18-.2.75-1,.64-1.48.56-2.78-.48-4.48,1.35-6.35,2.85-.66.54-1.39,1.29-1.89,0-1.07-2.79-3.5-2-5.48-2a13.17,13.17,0,0,0-3.58.87c-.1,1.31,1.37,1.47,1.61,2.69-1.69.79-3.29,1.25-4.74-.56-.3-.39-.65-.92-1.2-.54s-.36.91-.17,1.38a17.4,17.4,0,0,0,1.06,2.22c.44.74,1.42,1.25.49,2.33-.39.47.19.9.57,1.21s1.07.79,1.58,1.22c.88.75,2.1,1.52,1.48,2.84-.71,1.51-1.87-.16-3,.21-.1.76.72,2.09-1.12,2.36-1.26.19-.09,1.18-.1,1.81s.95,1.43.11,2a2.68,2.68,0,0,1-2.41,0,6.55,6.55,0,0,1-4.2-5.15c-1-4.63-3.89-8.1-6.56-11.73a4.07,4.07,0,0,1-.34-4c1.14-2.87-.28-4.52-2.52-5.61-3-1.46-5.59-3.53-8.61-5a6.25,6.25,0,0,1-3.46-5.16c-.19-2-1.09-2.77-2.93-1.53-1,.69-1.44.11-1.45-.74,0-1.08-.36-1.93-1.43-2a3.5,3.5,0,0,0-3.06,1.37,4.27,4.27,0,0,0,1.18,6,7.54,7.54,0,0,1,2.6,3.51c1,2.48,2.65,4.55,5.54,5.13.25,0,.67,0,.71.13,1.39,3.72,5.7,3.51,8.05,6,.94,1,1.53,1.7.47,3.08a6.06,6.06,0,0,0-3-2.11c-1.22-.26-2.14-.35-2.9,1s-.19,1.92.87,2.55a1.5,1.5,0,0,1,0,2.64c-1.91.55-2.32,2.23-3.3,3.47-.37.47-.76,1.05-1.41.77-.94-.41-.41-1.21-.11-1.67a5,5,0,0,0-.18-6.17A23.24,23.24,0,0,0,217,130c-3.16-2.43-7.36-3.26-9.85-6.76-1.27-1.79-2.49-3.42-2.71-5.71-.26-2.84-4.07-4.57-6.36-2.84-2,1.53-4.59,1.91-6.57,3.45-.56.43-1.08.2-1.65,0-1.37-.35-2.74-.68-4.12-1-3.94-.81-6.67.8-8,4.45-1,2.87-3.63,3.68-6.26,4.19a10.73,10.73,0,0,0-8.28,9.37,1.28,1.28,0,0,1-.78,1.15c-1.28.72-1.85,2.5-2.83,3-3.09,1.44-5.23,4.76-9.06,4.7a9.378,9.378,0,0,1-2-.21,7.81,7.81,0,0,0-7,1.49c-1.81,1.36-2.77.91-3.23-1.32-.71-3.38-.7-3.31-4.36-3a12.71,12.71,0,0,1-3.17-.57c.07-1.31,1.06-2.22,1.4-3.39s.72-1.88-.24-3.13c-1.3-1.71.25-3.45,1.46-4.52,4.32-3.83,5.35-9.09,6.63-14.25a1.56,1.56,0,0,1,1-1.21c2.24-1,4.19-1.91,7-1.1a76.339,76.339,0,0,0,12.98,2.3,5,5,0,0,0,5.25-2.86,61.287,61.287,0,0,0,2.82-6.1c1-2.37-1-7-3.37-8.44-.84-.51-2.41-.41-2.08-2.21s1.51-1.8,2.88-2.07a6.27,6.27,0,0,1,3.88.49c2.13.94,2.75,0,2.93-1.89a6.767,6.767,0,0,1,.23-1.21c3.16,1.47,9.22-.06,11.2-2.91a3.67,3.67,0,0,1,2.88-1.68,9.35,9.35,0,0,0,7.65-4.44,7.34,7.34,0,0,1,6.07-3.4c2-.11,3.92-1.2,6.1-.5a1.894,1.894,0,0,0,2.24-2c.04-1.43,0-2.65,0-4,0-3.35,1.3-5.08,4.53-5.69,1.2-.23,2.06-1.41,3.53-1.22.13,1.37-2.17,2.51-.43,4.06.19.17-.69.48-1.09.71-1.11.65-2.4,1.19-2.54,2.8a3.62,3.62,0,0,0,5,3.82,3.33,3.33,0,0,1,3.86.44c1.49,1.32,2.84,1,4.48.37,2.15-.86,4.45-1.34,6.64-2.13a4.19,4.19,0,0,1,4,.47c1.39.94,2.55,1.14,3.55-.46a.9.9,0,0,1,.57-.44c3.29-.18,3.59-2.27,3.25-4.9a3.68,3.68,0,0,1,1.31-3.36c1.16-.94,2.49-1.94,3.74,0a2,2,0,0,0,2.39.89c1.15-.31.95-1.41,1.13-2.26a1.462,1.462,0,0,0-1.15-2A1.69,1.69,0,0,1,251.28,61c.1-1.06,1.05-1,1.7-1.16,2.16-.61,4.36-1.13,6.61-.38a2.09,2.09,0,0,0,.5.08,5.44,5.44,0,0,0,4.34-1.49c.31-.27.21-.6-.11-.82a5.13,5.13,0,0,0-4.24-.91,48.564,48.564,0,0,0-5.82,1.28,6.21,6.21,0,0,1-6.95-1.6,2.351,2.351,0,0,1-.37-.33c-1-1.3-.31-6.94,1.07-7.94,1.94-1.41,4-2.71,6.05-3.94,1.55-.93,1.17-1.52-.16-2.19a5.05,5.05,0,0,0-7.09,3c-.38,1.22-1.51,1.45-2.35,2.06-2.35,1.72-5.51,2.27-6.92,5.38a3.17,3.17,0,0,0,.49,3.78c.56.72,2.14,1,1.52,2.23s-1.31,2.79-2.76,3c-2.08.37-2.58,1.79-3,3.42a12.651,12.651,0,0,1-2.07,4.5c-.35.44-.62,1.31-1.22,1.09-2.4-.88-3.48.81-5,2.1s-2.9.23-3.23-1.73c-.53-3.26-1.27-6.49-2-9.72-.33-1.43-1-1.81-2.49-.92-2.11,1.25-4.07,2.89-6.77,2.93-2.87,0-4-1.14-3.4-3.88A43.562,43.562,0,0,1,210,51.8c.64-1.63,2.27-2.28,3.73-2.65,8.06-2,14.31-7.07,20.84-11.85,4.54-3.33,9.42-6.37,15.54-6.73,2-.12,4-1.53,6.29-1.58,2.44,0,4.88-.52,6.24,2.3a1.65,1.65,0,0,0,1.25.71,53.3,53.3,0,0,1,15.84,3.17c1.71.57,4.21,1.1,3.69,3.21s-3,2-5,1.72a81.064,81.064,0,0,0-8.04-1.1c2.37,1,3.46,2.9,4.43,5.08.74,1.65,2.91,1.41,4.44,1.69.68.12.18-1-.29-1.42-.28-.26-.81-.42-.57-1s.8-.47,1.28-.36c1.22.27,2.44.52,3.63.85.63.17,1.23.21,1.57-.34s-.31-.83-.62-1.16-.86-.75-.38-1.23c.91-.9,1.54-2.13,3.14-2.21,1,0,2.44,1.14,2.91.1.62-1.37-1.36-1.56-2-2.44a16.677,16.677,0,0,1-1.17-2.39,5.77,5.77,0,0,1,3.44.17c.52.21,1.65.14.81,1.6-.65,1.16,1.08,1.65,2,1.84.76.16,2.26.07,2-1.08-.32-1.4.54-1.52,1.24-2,1-.69,2.07-1.37,3.09-2.08.49-.34,1.28-.88,1.54-.42,1.76,3.06,3.55,0,5.26,0,.93,0,1.88-.76,3-.21.36.19.85.25,1-.29a.79.79,0,0,0-.49-1l-2.86-1.24c5.34-1,9.67,1.35,14.36,1.35-5.14-2.09-10.52-3.72-13.55-9a5.28,5.28,0,0,1,4.9,1c2.77,2.21,6.25,3,9.18,4.85a2.76,2.76,0,0,0,2,1.34c2.9.6,4.81,2.41,6.36,4.77.49.76,1.13,1.84,2.05,1.06.51-.43,0-1.53-.69-2.29-2.64-2.81-6.14-3.87-9.63-5-.79-1.5-2.23-2.06-3.7-2.65-1-.4-2.72-.29-2.66-1.69,0-.62,1.34-1.67,3.28-1.65l-5.56-2.49L315.61,18c-2.29-1.13-5.19-1.17-5.13-4.68,0-.93-2-1.08-3.2-1.87,4.48-.9,8.29.35,12,2.05a4.54,4.54,0,0,0,4.86-.25c3.59.35,6.83,1.95,10.16,3.12a229.9,229.9,0,0,1,31.48,13.69,257.848,257.848,0,0,1,43.44,28.86,260.343,260.343,0,0,1,24.58,23.3,241.46,241.46,0,0,1,32.14,43.54,261.9,261.9,0,0,1,21.45,47.31,203.1,203.1,0,0,1,8.15,33C495.87,208.22,496.78,210.34,496.38,212.63ZM354.91,121.29a3.41,3.41,0,0,1-1.34-2.55,2.25,2.25,0,0,0-2.14-2.37c-4.13-.21-5.08-4.59-8.48-5.68.83-1.11,1.9-.32,2.46-1-1-3-.93-3.19,2.49-3.48,1-.08,1.33-.24,1.15-1.3-.71-4.11-6.05-6.49-9.36-4-1.56,1.19-4.37,1.34-4.23,4.3,0,.19-.63.43-1,.61-3.08,1.47-3.57,4.56-1.1,6.79.8.72,2,1.43,2.16,2.32.52,2.58,2.51,3.81,4.21,5.32a52.2,52.2,0,0,0,4.22,3.5c3.31,2.4,3.87,6,3.68,9.54-.23,4.23,1,6.36,5.19,7.25a7.341,7.341,0,0,1,2.42,1.21c2.53,1.6,8.33,1.22,10.68-.57.82-.62.44-1.21.13-1.71a28.182,28.182,0,0,1-2.49-6.22c-.63-2-4.34-1.74-3.74-4.81a.945.945,0,0,0-.61-.31c-2.12.12-2-1.73-1.92-2.76.2-1.63,1.54-.31,2.36-.35a2.43,2.43,0,0,0,2.24-1.29c.44-1-.73-1.09-1.22-1.56a26.142,26.142,0,0,1-2.23-2c-1.56-1.74-2.45-1-3.13.74Z" transform="translate(52.001 -754)" fill="#dfe5ef"/>
      <path id="Path_3" data-name="Path 3" d="M194.71,9.08h-1.9a27.24,27.24,0,0,1,9.66-2.23c-.06,1.29-1.49.52-2,1.31,1.85,0,3.66.37,5.62-.63-1.35-.49-2.5.1-3.42-.68,3.45-1.43,7.21-1.35,10.8-2.11,1.1-.23,2.18-.81,3.38-.48,1,.86,2.38.11,3.61.75-1.07,1.17-2.67,1-4,1.75a3.11,3.11,0,0,0,2.52.53c2.49,0,5-.06,7.47,0,.56,0,1.32,0,1.28.83s-.83.67-1.37.69c-1,.05-2,0-3.06,0,1.28,1.6,3.17.65,5,1.28a5.1,5.1,0,0,1-3.15,1c-4.72.69-9,2.56-13.45,4.15s-8.14,5.09-12.77,5.63c-2.58.3-4.46,2.62-7.19,1.86-.68-.18-.56.64-.76,1-1,2.2-2.22,2.57-4.75,1.78-1.05-.33-2,.59-3.06.78.42.77,1.49.2,1.85,1.21-4.87,1.19-9.68,2.56-14.76,2.37a8.81,8.81,0,0,0-4.08.95,31.74,31.74,0,0,1-11.3,2.73,14.2,14.2,0,0,0-6.29,2.13,2.34,2.34,0,0,1-.43.26c-6,2.23-11.4,5.66-17,8.75a6,6,0,0,1-1.15.45,2.29,2.29,0,0,1-.73,0c.6-5.73,5.68-7.52,9.42-10.08,6.54-4.48,13.23-9,21.27-10.5,1.7-.31,1.92-1.91,3.2-2.49,1.81-.82,4.11-.75,5.55-1.73,2.14-1.47,4.48-2,6.76-2.93,3.79-1.48,7.72-2.67,11.37-4.43,2.69-1.3,5.09-3.2,8.22-3.46L196.66,9a1.61,1.61,0,0,0-1.95.08Z" transform="translate(52.001 -754)" fill="#dfe5ef"/>
      <path id="Path_4" data-name="Path 4" d="M2.2,239.29c1.17,4.37,1.19,8.88,1.26,13.32.09,5.72.75,11.4.72,17.14,0,4.2,2.14,8.17,3.79,12.08a23.18,23.18,0,0,1,1.7,5.71c.39,2.81,2.27,5.06,3.95,6.91,3.09,3.4,4.54,7.48,6.29,11.47a15.75,15.75,0,0,0,3.71,5.82,4,4,0,0,1,1.17,1.87c1.24,4.9,3.06,9.74,2.73,14.88-.27,4-1.35,8-1.33,12.06a13.35,13.35,0,0,0,.35,4.14q4.38,13.35,8.74,26.7c.31.92.66,1.82-.82,1.95h0c0-.37-.23-.48-.53-.54a6.153,6.153,0,0,1-1-1.09A278.241,278.241,0,0,1,16.46,335,253,253,0,0,1,6.37,298.15c-1.5-7.88-2.61-15.81-3.42-23.8C1.77,262.67,1.91,251,2.2,239.29Z" transform="translate(52.001 -754)" fill="#dfe5ef"/>
      <path id="Path_5" data-name="Path 5" d="M90.45,65.14a1.174,1.174,0,0,1-1.46,1h-.06c0-2.1-1.45.44-1.76-1.26,0,0,.14-.7.28-1.37,1.51-2.32,3.83-3.77,5.91-5.46a233.552,233.552,0,0,1,24.09-17.37,21.679,21.679,0,0,1,2-1c1.06,1,.08,1.43-.54,1.88A93.719,93.719,0,0,1,111.18,47c-4.62,2.71-7.57,7.15-11.41,10.67a33.58,33.58,0,0,1-5.5,4.59c-1.43.83-2,2.79-3.86,2.87-.06-.32.68-.69,0-.94a.67.67,0,0,0-.88.58C89.56,65.44,90.13,65.06,90.45,65.14Z" transform="translate(52.001 -754)" fill="#dfe5ef"/>
      <path id="Path_6" data-name="Path 6" d="M170.35,15.7a42.42,42.42,0,0,1-9.88,4.47,45.35,45.35,0,0,0-9.1,4.5,39.79,39.79,0,0,1-8.74,3.46c-2.25.72-4.24,2.22-6.41,3.25-.84.4-1.81,1.47-2.81.14,2-1.94,4.7-2.73,7.12-3.91a223.93,223.93,0,0,1,26.93-11.34,6,6,0,0,1,2.89-.57Z" transform="translate(52.001 -754)" fill="#dfe5ef"/>
      <path id="Path_7" data-name="Path 7" d="M498.86,269.57c-.85-3.56.1-7.24-.82-10.82-.66-2.55-1.08-5.16-1.57-7.75-.12-.63-.43-1.29,0-1.93.26-.41.54-.92,1.12-.83s.34.66.51,1c.48,1,0,2.33.92,3.23h0c.08,1-.48,2.2.61,3,.32,3.58-.23,7.13-.29,10.7a30.581,30.581,0,0,1-.48,3.4Z" transform="translate(52.001 -754)" fill="#dfe5ef"/>
      <path id="Path_8" data-name="Path 8" d="M499.23,247c-.46-6.84-2.12-13.53-2.75-20.36,1.43,2.6,1.32,5.52,1.92,8.29.12.56-.18,1.47.93,1.38.51,3-.24,6,.59,9a1.68,1.68,0,0,1-.69,1.69Z" transform="translate(52.001 -754)" fill="#dfe5ef"/>
      <path id="Path_9" data-name="Path 9" d="M202.68,6.85c.92.78,2.07.19,3.42.68-2,1-3.77.65-5.62.63.5-.79,1.93,0,2-1.31Z" transform="translate(52.001 -754)" fill="#dfe5ef"/>
      <path id="Path_10" data-name="Path 10" d="M499,252.47l.5-1.52a.88.88,0,0,1,.05,1.5H499Z" transform="translate(52.001 -754)" fill="#dfe5ef"/>
      <path id="Path_11" data-name="Path 11" d="M499,252.44h.57v3.05C498.49,254.64,499.05,253.47,499,252.44Z" transform="translate(52.001 -754)" fill="#dfe5ef"/>
      <path id="Path_12" data-name="Path 12" d="M496.86,215.14a1.06,1.06,0,0,1-.26-1.18A1,1,0,0,1,496.86,215.14Z" transform="translate(52.001 -754)" fill="#dfe5ef"/>
      <path id="Path_13" data-name="Path 13" d="M171.46,15.29l-.65.27Z" transform="translate(52.001 -754)" fill="#dfe5ef"/>
      <path id="Path_14" data-name="Path 14" d="M174.38,14.23l-.57.24Z" transform="translate(52.001 -754)" fill="#dfe5ef"/>
      <path id="Path_15" data-name="Path 15" d="M499.56,254v-.54a2.993,2.993,0,0,1,.15.38.568.568,0,0,0-.15.16Z" transform="translate(52.001 -754)" fill="#dfe5ef"/>
      <path id="Path_16" data-name="Path 16" d="M498.71,271l.12-.68Z" transform="translate(52.001 -754)" fill="#dfe5ef"/>
      <path id="Path_17" data-name="Path 17" d="M34,372.82c.3.06.55.17.53.54C34,373.48,34,373.12,34,372.82Z" transform="translate(52.001 -754)" fill="#dfe5ef"/>
      <path id="Path_18" data-name="Path 18" d="M175.42,13.76l-.6.35Z" transform="translate(52.001 -754)" fill="#dfe5ef"/>
      <path id="Path_19" data-name="Path 19" d="M374,384.42c-.65,1.54,1.26,3.65-.26,5.58-.41.51-.45,1.57-1.44.34-.8-1-1.23.25-1.15.69.67,3.6-1.88,6.16-3.26,8.84A265.421,265.421,0,0,1,353.26,425c-1.87,2.83-8.21,4.82-11.45,4-1.9-.47-2.41-1.58-2.08-3.28a5.729,5.729,0,0,0,0-2.67c-.78-3,0-5.19,2.46-7.58s5.43-5.27,3.69-10c-1.29-3.48,1.7-8.46,5.27-9.65,7.88-2.63,12.91-8.62,17.94-14.66.89-1.06.37-2.57,1.4-3.65.88-.91,1.23-1.35,2.11,0a10,10,0,0,1,1.4,6.91Z" transform="translate(52.001 -754)" fill="#dfe5ef"/>
      <path id="Path_20" data-name="Path 20" d="M172,84a10.84,10.84,0,0,1-1.36-.54c-.63-.39-1.83-.07-1.78-1.34,0-1.1,1-.88,1.68-1.1a1.71,1.71,0,0,0,1.36-1.74c.17-1.91,1-3.35,3.37-2.61a2.17,2.17,0,0,0,3-1.51,2.06,2.06,0,0,0-1.58-2.87c-1.39-.34-1.67-1-.63-2,.5-.51,1.59-1.15-.24-1.2-.38,0-.28-.28-.26-.52.32-5,5.77-9.34,10.63-8.47-.14,1.28-1.61,1.29-2.09,2.21.07.13.1.33.2.37.92.42,2.56-.5,2.79.74.18,1-1.09,1.94-2.06,2.63-.8.58-1.58,1.18-2.63,2a2.55,2.55,0,0,1,1.93,3,2.73,2.73,0,0,0,1,2.86c1,.72.44,2,.29,3-.22,1.49-.24,2.65,1.62,3,.44.06,1.12.31.92.92a3.21,3.21,0,0,1-1.05,1.65c-2,1.35-2.12,5-5.46,4.74a71.5,71.5,0,0,0-15.71,1.22c-.55.09-1.15.57-1.47-.2-.25-.61.37-.83.79-1C167.29,86,169,84.33,172,84Z" transform="translate(52.001 -754)" fill="#dfe5ef"/>
      <path id="Path_21" data-name="Path 21" d="M157,80.56c2.14-1.84,4.72-3.29,5-6.45,0-.33.68-.68,1.11-.89,1.94-1,3.86-1.92,5.85-2.75,1.13-.47,2.32-.83,3.28.57s-.1,2-1,2.77a7.48,7.48,0,0,0-1.73,2.4C167.49,80.06,160.86,82.44,157,80.56Z" transform="translate(52.001 -754)" fill="#dfe5ef"/>
      <path id="Path_22" data-name="Path 22" d="M166.14,41c1.89-.38,2-3,4-2.93-1.11-1.67.11-2.11,1.35-2.46s2.43-1.14,2.84.93c.15.75.76.36,1.21.26,2.55-.56,5.19.11,7.73-.59a3.226,3.226,0,0,1,.7.22c-1.21,2.47-2.6,4.74-5.59,5.05C174.4,42,170.31,44.49,166.14,41Z" transform="translate(52.001 -754)" fill="#dfe5ef"/>
      <path id="Path_23" data-name="Path 23" d="M300.28,27.43c-3.21,1.53-5.92-.42-8.79-.83-1.35-.19-1.42-1.76-1.55-2.49a9.78,9.78,0,0,0-1.4-3.44c-1.17-1.77,0-2.42.92-3.15s2.09-.88,3-1.61a1.72,1.72,0,0,1,2.26.47c.61.77-.39,1-.83,1.42-2,1.79-1.4,5.45,1.15,7.52C296.55,26.51,298.41,26.7,300.28,27.43Z" transform="translate(52.001 -754)" fill="#dfe5ef"/>
      <path id="Path_24" data-name="Path 24" d="M474.25,247.33c4.69,4,5.65,13.1,1.81,16.73C473.84,258.69,474,253.24,474.25,247.33Z" transform="translate(52.001 -754)" fill="#dfe5ef"/>
      <path id="Path_25" data-name="Path 25" d="M220.21,141.58c-.78,1.86-1.53,3.36-1.44,5.19.07,1.29-.62,2-2.24,1.12-2.13-1.23-4.46-2.11-6.7-3.15-.89-.42-1.88-.71-1.33-2.14.47-1.23,1.35-1.11,2.21-.86C213.77,142.61,216.79,141.47,220.21,141.58Z" transform="translate(52.001 -754)" fill="#dfe5ef"/>
      <path id="Path_26" data-name="Path 26" d="M194,135.65c.36-2.52.65-4.4.93-6.27.21-1.4,2.33-1.49,3.41-1.55s1.91,1.85,1.67,2.89c-.53,2.34-.29,5.32-3.84,5.95C194.52,137,193.86,136.72,194,135.65Z" transform="translate(52.001 -754)" fill="#dfe5ef"/>
      <path id="Path_27" data-name="Path 27" d="M253.6,13.17a1,1,0,0,1-1.18.85c-3.17-.29-5.48,1.38-7.6,3.36-.82.77-1.73,1-2.37.27-.89-1.07-2.16-2-2.13-3.64,0-.58.74-.74,1.18-.66,3.23.64,6.2-1.23,9.38-.95a5,5,0,0,1,2.72.77Z" transform="translate(52.001 -754)" fill="#dfe5ef"/>
      <path id="Path_28" data-name="Path 28" d="M89,66.19c-3.49,4.32-6.24,9.26-10.66,13-.2-4.24-.1-4.82,2.69-7.14a57.12,57.12,0,0,1,7.91-5.91Z" transform="translate(52.001 -754)" fill="#dfe5ef"/>
      <path id="Path_29" data-name="Path 29" d="M259.68,157c-2.27.27-4.29-1.21-6.58-1.39-.8-.06-.92-.58-.59-1.23.17-.36.41-.91.86-.49,2.3,2.1,5.15.31,7.62,1.14.79.27,2.27-.38,2.32.69.06,1.55-1.54,1.05-2.52,1.21a8.771,8.771,0,0,1-1.11.07Z" transform="translate(52.001 -754)" fill="#dfe5ef"/>
      <path id="Path_30" data-name="Path 30" d="M295.68,153.53c-.47,1.81-1,3.39-3.17,4.07s-3.29.24-4.05-1.58c2.22-1.63,4.73-2.06,7.25-2.45Z" transform="translate(52.001 -754)" fill="#dfe5ef"/>
      <path id="Path_31" data-name="Path 31" d="M200.73,121.7a3,3,0,0,1-.5,2.34c-.68.74-.73,2.7-2.26,1.87-1.21-.67-1.06-2.27-.64-3.55a2.8,2.8,0,0,1,1.43-1.63c.49-.25,1.12-.62,1.56-.5C201.16,120.48,200.56,121.37,200.73,121.7Z" transform="translate(52.001 -754)" fill="#dfe5ef"/>
      <path id="Path_32" data-name="Path 32" d="M302.74,10.56c-4.51-.41-9.13-.09-13.37-2.31l13.46,1.68Z" transform="translate(52.001 -754)" fill="#dfe5ef"/>
      <path id="Path_33" data-name="Path 33" d="M221.76,71.57c-.6.89-1.13,2.37-2.32,2.39a2.17,2.17,0,0,1-2.09-2.3c.24-1.57,1.9-1.17,3-1.47C221.28,69.92,221.66,70.54,221.76,71.57Z" transform="translate(52.001 -754)" fill="#dfe5ef"/>
      <path id="Path_34" data-name="Path 34" d="M77.29,79.87c-.1-.07-.28-.14-.27-.19a1.08,1.08,0,0,1,.17-.36c.1.06.29.13.28.17a1.31,1.31,0,0,1-.18.38Z" transform="translate(52.001 -754)" fill="#dfe5ef"/>
      <path id="Path_35" data-name="Path 35" d="M295.71,153.57l.33-.32.11.22-.47.06Z" transform="translate(52.001 -754)" fill="#dfe5ef"/>
      <path id="Path_36" data-name="Path 36" d="M314.5,22.37l.04.11-.13-.02Z" transform="translate(52.001 -754)" fill="#dfe5ef"/>
      <path id="Path_37" data-name="Path 37" d="M285.98,34.02l-.06-.11.15.01Z" transform="translate(52.001 -754)" fill="#dfe5ef"/>
      <path id="Path_38" data-name="Path 38" d="M355.31,120.94c.68-1.78,1.57-2.48,3.13-.74.66.73,1.51,1.29,2.23,2,.49.47,1.66.6,1.22,1.56a2.43,2.43,0,0,1-2.24,1.29c-.82,0-2.16-1.28-2.36.35-.13,1-.2,2.88,1.92,2.76.21,0,.62.24.61.31-.6,3.07,3.11,2.8,3.74,4.81a28.182,28.182,0,0,0,2.49,6.22c.31.5.69,1.09-.13,1.71-2.35,1.79-8.15,2.17-10.68.57a7.34,7.34,0,0,0-2.42-1.21c-4.2-.89-5.42-3-5.19-7.25.19-3.58-.37-7.14-3.68-9.54a52.2,52.2,0,0,1-4.22-3.5c-1.7-1.51-3.69-2.74-4.21-5.32-.17-.89-1.36-1.6-2.16-2.32-2.47-2.23-2-5.32,1.1-6.79.37-.18,1-.42,1-.61-.14-3,2.67-3.11,4.23-4.3,3.31-2.53,8.65-.15,9.36,4,.18,1.06-.19,1.22-1.15,1.3-3.42.29-3.49.45-2.49,3.48-.56.73-1.63-.06-2.46,1,3.4,1.09,4.35,5.47,8.48,5.68a2.25,2.25,0,0,1,2.14,2.37,3.41,3.41,0,0,0,1.34,2.55c.18.2.35.41.52.62C355.75,121.54,355.57,121.24,355.31,120.94Z" transform="translate(52.001 -754)" fill="#dfe5ef"/>
      <path id="Path_39" data-name="Path 39" d="M321.76,27.59c3.49,1.13,7,2.19,9.63,5,.72.76,1.2,1.86.69,2.29-.92.78-1.56-.3-2.05-1.06-1.55-2.36-3.46-4.17-6.36-4.77a2.76,2.76,0,0,1-2-1.34Z" transform="translate(52.001 -754)" fill="#dfe5ef"/>
      <path id="Path_40" data-name="Path 40" d="M291.52,182.17c-.28-.22-.46-.64-.16-.77s.32.34.4.59Z" transform="translate(52.001 -754)" fill="#dfe5ef"/>
      <path id="Path_41" data-name="Path 41" d="M291.76,182c.19.31.38.62.56.94l-.34.3c-.15-.36-.3-.71-.46-1.07Z" transform="translate(52.001 -754)" fill="#dfe5ef"/>
      <path id="Path_42" data-name="Path 42" d="M194.71,9.08A1.61,1.61,0,0,1,196.66,9l-1.61.54Z" transform="translate(52.001 -754)" fill="#dfe5ef"/>
      <path id="Path_43" data-name="Path 43" d="M90.45,65.14c-.32-.08-.89.3-.89-.33a.67.67,0,0,1,.88-.58c.65.25-.09.62,0,.94Z" transform="translate(52.001 -754)" fill="#dfe5ef"/>
      <path id="Path_44" data-name="Path 44" d="M355.31,120.94c.26.3.44.6.12,1-.17-.21-.34-.42-.52-.62Z" transform="translate(52.001 -754)" fill="#dfe5ef"/>
    </g>
    <circle id="Ellipse_34" data-name="Ellipse 34" cx="248.99" cy="248.99" r="248.99" transform="translate(54.5 -751.5)" fill="none" stroke="#fff" stroke-miterlimit="10" stroke-width="4"/>
    <circle id="Ellipse_147" data-name="Ellipse 147" cx="53" cy="53" r="53" transform="translate(250 -556)" fill="#eb1b1b"/>
  </g>
</svg>
