<svg width="1118" height="403" viewBox="0 0 1118 403" fill="none" xmlns="http://www.w3.org/2000/svg">
<path d="M803.49 182C786.23 178.81 763.58 177.13 756.22 166.67C745.15 150.97 758.97 128.12 795.17 130.26C827.94 132.19 832.41 157.47 832.86 167.31H880.13C880.77 148.79 873.13 129.62 861.6 117.49C846.92 102.16 812.42 86.1801 769.6 92.5801C746.6 95.7601 715.93 109.18 705.7 139.21C696.76 167.31 705.7 192.85 722.95 206.28C744.67 222.89 785.44 227.87 802.16 231.2C822.38 235.2 837.4 237.94 834.9 259.45C832.28 282.06 797.24 288.45 774.05 281.01C757.53 275.68 750.41 262.48 747.22 244.6H697.45C697.45 267.26 710.93 291.16 724.58 302.14C744.82 318.41 767.82 324.14 794.39 324.14C829.29 324.14 858.17 315.14 875.66 289.31C884.83 275.77 894.83 244.6 878.84 216.5C864.84 192.22 832.84 187.11 803.49 182Z" fill="white"/>
<path d="M638.67 122.59C618.38 99.4001 582.85 86.1701 546.67 91.9201C478.83 102.7 462.23 166.98 459.15 187.75C453.41 226.62 464.91 291.86 533.26 317.42C565.18 329.55 605.43 325.08 636.09 302.73C653.33 289.93 670.58 261.2 671.86 243.3H615C612.591 253.487 606.72 262.522 598.39 268.86C575.39 285.47 549.21 274.62 537.7 266.3C520.46 253.54 514.07 232.46 514.07 202.43C514.07 160.85 533.19 136.22 566.2 136.22C596.08 136.22 614.55 161.92 613.09 183.27H532.59V223.51H671.89C675.29 185.63 657.68 144.32 638.67 122.59V122.59Z" fill="white"/>
<path d="M1052.81 254C1048.17 267.34 1035.65 277.13 1011.94 280.25C980.65 284.36 959.28 264.94 972.81 239.93C986.34 214.92 1036.42 223.72 1055.37 205.44C1055.37 210.55 1056.2 244.25 1052.81 254ZM1110.31 262.3V193.3C1110.31 182.84 1109.05 157.67 1105.85 140.92C1103.54 128.92 1093.15 110.58 1073.24 100.66C1055.9 92.0101 1042.56 90.4601 1014.32 90.4601C971.87 90.4601 926.17 105.22 924.22 166.46H975.31C975.31 144.3 990.66 131.21 1014.17 131.21C1037.17 131.21 1056.68 143.6 1052.17 163.91C1047.66 184.22 1010.17 184.98 986.17 188.18C958.37 191.89 921.01 204.79 912.07 243.76C908.87 259.09 911.42 287.19 935.07 305.76C951.07 317.9 968.07 323.02 990.66 323.02C1019.52 323.02 1043.78 310.45 1057.27 298.1C1057.9 301.29 1061.09 313.43 1063.65 316.64H1117.31C1109 300.02 1110.31 274.26 1110.31 262.34V262.3Z" fill="white"/>
<path d="M96.47 226.32C91.9349 226.32 87.5016 224.975 83.7308 222.456C79.96 219.936 77.021 216.355 75.2854 212.165C73.5499 207.975 73.0958 203.365 73.9806 198.917C74.8653 194.469 77.0492 190.383 80.256 187.176C83.4629 183.969 87.5486 181.785 91.9966 180.901C96.4446 180.016 101.055 180.47 105.245 182.206C109.435 183.941 113.016 186.88 115.536 190.651C118.055 194.422 119.4 198.855 119.4 203.39C119.4 209.471 116.984 215.304 112.684 219.604C108.384 223.904 102.551 226.32 96.47 226.32V226.32ZM274.37 329.18C183.84 297.92 167.09 214.18 189.65 155.55C212.21 96.9201 291.1 69.55 345.85 108.84C400.6 148.13 394.85 223.51 394.85 223.51H254.39V183.27H335.89C335.89 183.27 338.16 167.57 324.61 152.65C317.145 144.259 307.024 138.686 295.941 136.866C284.859 135.045 273.487 137.087 263.73 142.65C242.73 154.74 228.3 197.84 239.56 235.74C250.82 273.64 285.23 288.69 318.34 288.69C366.34 288.69 401.99 255.54 402.06 201.27C402.097 156.523 387.206 113.043 359.745 77.7138C332.284 42.3845 293.822 17.2253 250.45 6.22006C142.86 -21.0699 33.52 44.0001 6.22 151.61C-21.08 259.22 44 368.55 151.6 395.85C188.034 405.101 226.333 403.95 262.146 392.528C297.959 381.105 329.851 359.868 354.2 331.23C331.43 337.96 304.36 339.53 274.37 329.18Z" fill="white"/>
</svg>
