<svg xmlns="http://www.w3.org/2000/svg" xmlns:xlink="http://www.w3.org/1999/xlink" width="66.957" height="48.225" viewBox="0 0 66.957 48.225">
  <defs>
    <filter id="Polygon_17" x="27" y="0" width="39.957" height="48.225" filterUnits="userSpaceOnUse">
      <feOffset dy="3" input="SourceAlpha"/>
      <feGaussianBlur stdDeviation="3" result="blur"/>
      <feFlood flood-opacity="0.161"/>
      <feComposite operator="in" in2="blur"/>
      <feComposite in="SourceGraphic"/>
    </filter>
    <filter id="Polygon_18" x="0" y="0" width="39.957" height="48.225" filterUnits="userSpaceOnUse">
      <feOffset dy="3" input="SourceAlpha"/>
      <feGaussianBlur stdDeviation="3" result="blur-2"/>
      <feFlood flood-opacity="0.161"/>
      <feComposite operator="in" in2="blur-2"/>
      <feComposite in="SourceGraphic"/>
    </filter>
  </defs>
  <g id="Group_76" data-name="Group 76" transform="translate(-558 -517.678)">
    <g transform="matrix(1, 0, 0, 1, 558, 517.68)" filter="url(#Polygon_17)">
      <g id="Polygon_17-2" data-name="Polygon 17" transform="translate(55.96 8) rotate(90)" fill="#ecf2fc" stroke-linejoin="round">
        <path d="M 28.19335556030273 18.95745468139648 L 26.22493553161621 18.95745468139648 L 4.904785328108119e-06 18.95745468139648 L -1.96840512752533 18.95745468139648 L -0.8076050877571106 17.36774635314941 L 12.30485534667969 -0.5897145867347717 L 13.11246490478516 -1.695744514465332 L 13.92007446289062 -0.5897145867347717 L 27.03254508972168 17.36774635314941 L 28.19335556030273 18.95745468139648 Z" stroke="none"/>
        <path d="M 13.11246490478516 -3.814697265625e-06 L -5.7220458984375e-06 17.95745468139648 L 26.22492408752441 17.95745468139648 L 13.11246490478516 -3.814697265625e-06 M 13.11246490478516 -2.000003814697266 C 13.75099468231201 -2.000003814697266 14.35113525390625 -1.695114135742188 14.72768497467041 -1.179433822631836 L 27.84014511108398 16.77802467346191 C 28.28416442871094 17.38610458374023 28.34904479980469 18.19202613830566 28.00802421569824 18.86330604553223 C 27.66699409484863 19.53458595275879 26.97786521911621 19.95745468139648 26.22492408752441 19.95745468139648 L -5.7220458984375e-06 19.95745468139648 C -0.7529449462890625 19.95745468139648 -1.442075729370117 19.53458595275879 -1.783105850219727 18.86330604553223 C -2.124124526977539 18.19202613830566 -2.059244155883789 17.38610458374023 -1.615224838256836 16.77802467346191 L 11.4972448348999 -1.179433822631836 C 11.87379455566406 -1.695114135742188 12.4739351272583 -2.000003814697266 13.11246490478516 -2.000003814697266 Z" stroke="none" fill="#fff"/>
      </g>
    </g>
    <g transform="matrix(1, 0, 0, 1, 558, 517.68)" filter="url(#Polygon_18)">
      <g id="Polygon_18-2" data-name="Polygon 18" transform="translate(11 34.22) rotate(-90)" fill="#ecf2fc" stroke-linejoin="round">
        <path d="M 28.19333648681641 18.95739936828613 L 26.22491645812988 18.95739936828613 L -2.724609430515557e-06 18.95739936828613 L -1.968422770500183 18.95739936828613 L -0.8076127171516418 17.36767959594727 L 12.30484771728516 -0.5897212624549866 L 13.11245727539062 -1.695731282234192 L 13.92006683349609 -0.5897212624549866 L 27.03252792358398 17.36767959594727 L 28.19333648681641 18.95739936828613 Z" stroke="none"/>
        <path d="M 13.11245727539062 -1.9073486328125e-06 L -1.9073486328125e-06 17.95739936828613 L 26.22491645812988 17.95739936828613 L 13.11245727539062 -1.9073486328125e-06 M 13.11245727539062 -2.000001907348633 C 13.75098705291748 -2.000001907348633 14.35112762451172 -1.695110321044922 14.72767734527588 -1.179431915283203 L 27.84013748168945 16.77796936035156 C 28.28415679931641 17.38604927062988 28.34903717041016 18.19196891784668 28.00801658630371 18.86324882507324 C 27.6669864654541 19.5345287322998 26.97785758972168 19.95739936828613 26.22491645812988 19.95739936828613 L -1.9073486328125e-06 19.95739936828613 C -0.7529430389404297 19.95739936828613 -1.442071914672852 19.5345287322998 -1.783102035522461 18.86324882507324 C -2.124122619628906 18.19196891784668 -2.059242248535156 17.38604927062988 -1.615222930908203 16.77796936035156 L 11.49723720550537 -1.179431915283203 C 11.87378692626953 -1.695110321044922 12.47392749786377 -2.000001907348633 13.11245727539062 -2.000001907348633 Z" stroke="none" fill="#fff"/>
      </g>
    </g>
  </g>
</svg>
