<svg width="609" height="184" viewBox="0 0 609 184" fill="none" xmlns="http://www.w3.org/2000/svg">
<path d="M126.3 124.1C123.4 123.2 121.2 122.2 119.7 121.2L120.8 112.5C122.1 113.7 124.2 114.8 126.9 115.9C129.7 117 132.7 117.5 136 117.5C139.1 117.5 141.5 117 143.2 115.9C144.9 114.8 145.7 113.3 145.7 111.4C145.7 109.1 144.8 107.4 142.9 106.3C141 105.1 138.7 104.2 135.9 103.4C132.8 102.6 130.3 101.8 128.2 100.9C126.1 100 124.3 98.6001 122.8 96.8001C121.3 94.9001 120.6 92.5001 120.6 89.4001C120.6 85.2001 122.1 81.7001 125.1 78.9001C128.1 76.1001 132.7 74.7001 139 74.7001C141.9 74.7001 144.3 75.0001 146.3 75.5001C148.3 76.1001 150.3 76.8001 152.3 77.8001L151.2 86.0001C149.6 84.7001 147.8 83.6001 145.9 82.9001C144 82.1001 141.7 81.8001 139.2 81.8001C136.3 81.8001 134 82.3001 132.3 83.4001C130.6 84.5001 129.8 86.1001 129.8 88.3001C129.8 89.8001 130.2 90.9001 131 91.8001C131.8 92.7001 132.9 93.4001 134.4 94.0001C135.9 94.6001 138.1 95.4001 141.2 96.3001C145 97.4001 148.3 99.0001 151 101.1C153.8 103.2 155.1 106.4 155.1 110.9C155.1 114.9 153.7 118.3 150.9 121.2C148.1 124.1 143.3 125.5 136.5 125.5C132.6 125.4 129.2 125 126.3 124.1Z" fill="white"/>
<path d="M173.1 122C169.1 119.7 166.1 116.6 164.1 112.7C162 108.8 161 104.4 161 99.6001C161 95.0001 161.9 90.8001 163.8 87.0001C165.7 83.2001 168.5 80.1001 172.1 77.9001C175.7 75.7001 180 74.6001 184.9 74.6001C191.2 74.6001 196.2 76.4001 200.1 80.1001C204 83.8001 205.9 88.8001 205.9 95.3001C205.9 97.0001 205.8 98.6001 205.5 100.1H170C170.6 106.4 172.5 110.9 175.8 113.6C179.1 116.3 183.3 117.6 188.4 117.6C193.5 117.6 198.2 116.6 202.5 114.7L203.7 121.8C198 124.3 192.6 125.6 187.3 125.6C181.9 125.4 177.1 124.3 173.1 122ZM196.8 93.7001C196.8 90.2001 195.8 87.4001 193.8 85.4001C191.8 83.4001 188.8 82.4001 184.8 82.4001C180.9 82.4001 177.9 83.3001 175.7 85.2001C173.5 87.1001 171.9 89.9001 171 93.6001H196.8V93.7001Z" fill="white"/>
<path d="M215.1 75.4H222.1L223.1 80.6C225.7 78.3 228.3 76.7 230.9 75.8C233.5 74.9 236.3 74.5 239.2 74.5C252.5 74.5 259.2 82.2 259.2 97.5V124.5H250.2V97.5C250.2 92.2 249.2 88.4 247.3 86.1C245.3 83.7 242.1 82.6 237.5 82.6C234.6 82.6 231.9 83.1 229.5 84.2C227.1 85.3 225.3 86.9 224.1 89V124.6H215.1V75.4Z" fill="white"/>
<path d="M277.5 122C275.4 119.7 274.4 117 274.4 113.7V82.4H266L266.8 75.4H274.4V63.3L283.4 62.4V75.4H296.3V82.4H283.4V108.2C283.4 111.6 283.6 113.9 284 115.2C284.4 116.5 285.2 117.3 286.5 117.6C287.8 118 290.2 118.1 293.6 118.1H295.9L295.2 125.3H287.1C282.8 125.4 279.6 124.3 277.5 122Z" fill="white"/>
<path d="M303.9 54.4H312.9V64.4H303.9V54.4ZM303.9 75.4H312.9V124.4H303.9V75.4Z" fill="white"/>
<path d="M325.1 75.4H332.1L333.1 80.6C335.7 78.3 338.3 76.7 340.9 75.8C343.5 74.9 346.3 74.5 349.2 74.5C362.5 74.5 369.2 82.2 369.2 97.5V124.5H360.2V97.5C360.2 92.2 359.2 88.4 357.3 86.1C355.3 83.7 352.1 82.6 347.5 82.6C344.6 82.6 341.9 83.1 339.5 84.2C337.1 85.3 335.3 86.9 334.1 89V124.6H325.1V75.4Z" fill="white"/>
<path d="M390.1 122C386.1 119.7 383.1 116.6 381.1 112.7C379 108.8 378 104.4 378 99.6001C378 95.0001 379 90.8001 380.8 87.0001C382.7 83.2001 385.5 80.1001 389.1 77.9001C392.7 75.7001 397 74.6001 401.9 74.6001C408.2 74.6001 413.2 76.4001 417.1 80.1001C421 83.8001 422.9 88.8001 422.9 95.3001C422.9 97.0001 422.8 98.6001 422.5 100.1H387C387.6 106.4 389.5 110.9 392.8 113.6C396.1 116.3 400.3 117.6 405.4 117.6C410.5 117.6 415.2 116.6 419.5 114.7L420.7 121.8C415 124.3 409.6 125.6 404.3 125.6C398.9 125.4 394.1 124.3 390.1 122ZM413.8 93.7001C413.8 90.2001 412.8 87.4001 410.8 85.4001C408.8 83.4001 405.8 82.4001 401.8 82.4001C397.9 82.4001 394.9 83.3001 392.7 85.2001C390.5 87.1001 388.9 89.9001 388 93.6001H413.8V93.7001Z" fill="white"/>
<path d="M435.1 122C433.1 119.7 432.1 116.9 432.1 113.6V49.4H441.1V108.4C441.1 111.3 441.3 113.5 441.6 114.8C442 116.1 442.7 117 443.7 117.5C444.8 118 446.5 118.2 448.9 118.2L447.6 125.4H444.7C440.4 125.4 437.1 124.3 435.1 122Z" fill="white"/>
<path d="M493.3 80.5C496.6 84.6 498.2 90.1 498.2 97.1V124.4H489.2V98.2C489.2 92.8 488.2 88.8 486.3 86.3C484.3 83.7 481.3 82.5 477.2 82.5C474.7 82.5 472.3 83.1 470.2 84.2C468.1 85.4 466.3 87 464.8 89.1V124.4H455.7V49.4H464.8V80.1C466.7 78.2 468.8 76.8 471.1 75.9C473.4 74.9 476.1 74.5 479.1 74.5C485.3 74.4 490.1 76.5 493.3 80.5Z" fill="white"/>
<path d="M514.1 120.1C511 116.5 509.5 111.2 509.5 104V75.4H518.5V101.4C518.5 106.7 519.4 110.7 521.2 113.4C523 116.1 525.9 117.4 529.8 117.4C532.2 117.4 534.4 116.9 536.4 116C538.4 115.1 540 113.7 541.1 111.8V75.4H550.1V124.4H542.1L541.1 119C539.5 121.2 537.6 122.8 535.5 123.8C533.3 124.8 530.7 125.3 527.6 125.3C521.7 125.4 517.2 123.6 514.1 120.1Z" fill="white"/>
<path d="M598 77.9001C601.4 80.2001 603.9 83.3 605.7 87.2C607.5 91.1 608.4 95.3001 608.4 99.8001C608.4 104.5 607.4 108.7 605.5 112.6C603.5 116.5 600.9 119.6 597.5 121.8C594.1 124.1 590.4 125.2 586.4 125.2C583.4 125.2 580.5 124.6 577.7 123.4C574.9 122.2 572.7 120.5 571.2 118.3L570.2 124.3H562.2V49.3H571.2V81C573 78.9 575.2 77.3 577.9 76.1C580.6 74.9 583.4 74.3001 586.3 74.3001C590.8 74.4001 594.7 75.6001 598 77.9001ZM595.4 112.4C598 109 599.2 104.9 599.2 100C599.2 94.9001 597.9 90.8 595.4 87.5C592.8 84.2001 589.5 82.6 585.3 82.6C581.2 82.6 577.7 84.1 574.9 87.1C572.1 90.1 570.7 94.4001 570.7 100C570.7 105.8 572.1 110.2 574.8 113.1C577.6 116 581 117.5 585.2 117.5C589.5 117.4 592.9 115.7 595.4 112.4Z" fill="white"/>
<path d="M595.2 155.6V146.6H603.6V145.2H595.2V137.3H604.1V135.8H604H593.5V157.1H604.6V155.6H595.2Z" fill="white"/>
<path d="M577.5 145.3C574.3 144.1 573.2 142.9 573.2 140.7C573.2 139.3 574.1 137 577.6 137C579.3 137 580.6 137.5 581.2 138L581.3 138.1L582 136.6L581.9 136.5C581.1 136 579.6 135.5 577.7 135.5C574.1 135.5 571.5 137.8 571.5 141C571.5 143.7 573.2 145.6 577 146.9C580 148.1 581.2 149.4 581.2 151.7C581.2 154.3 579.3 156 576.3 156C574.7 156 573 155.5 571.7 154.6L571.6 154.5L570.9 156L571 156.1C572.1 156.9 574.3 157.6 576.1 157.6C580.8 157.6 582.9 154.6 582.9 151.7C582.8 148.2 580.7 146.6 577.5 145.3Z" fill="white"/>
<path d="M558.7 135.8V157.1H560.4V135.8H560.3H558.7Z" fill="white"/>
<path d="M541.1 147.9H546V155.1C545.5 155.4 544.2 155.8 541.7 155.8C536.2 155.8 532.8 152.2 532.8 146.5C532.8 140.7 536.3 137.2 542 137.2C543.8 137.2 545.2 137.5 546.4 138.1L546.5 138.2L547.1 136.7H547C546.7 136.5 544.8 135.7 542.1 135.7C534.5 135.7 531 141.2 531 146.6C531 149.9 532.1 152.8 533.9 154.6C535.8 156.5 538.3 157.4 541.4 157.4C544.3 157.4 546.5 156.7 547.6 156.2H547.7V146.5H541.1V147.9Z" fill="white"/>
<path d="M522.4 156.9C522 156.1 521.6 154.7 520.8 151.3C520.3 148.9 519.2 147.4 517.6 146.8C520.2 145.8 521.6 143.9 521.6 141.3C521.6 139.8 521 138.4 520.1 137.5C518.8 136.3 517 135.7 514.3 135.7C512.8 135.7 511 135.9 509.8 136.1H509.7V157.1H511.4V147.5H514.6C517.2 147.6 518.6 148.9 519.2 151.9C519.8 154.7 520.3 156.5 520.5 157V157.1H522.3L522.4 156.9ZM511.5 146V137.4C511.8 137.3 512.8 137.1 514.4 137.1C516.9 137.1 520 137.9 520 141.5C520 142.8 519.5 143.9 518.6 144.7C517.7 145.5 516.3 145.9 514.8 145.9H511.5V146Z" fill="white"/>
<path d="M490.2 146.6H498.6V145.2H490.2V137.3H499.1V135.8H499H488.5V157.1H499.6V155.6H490.2V146.6Z" fill="white"/>
<path d="M475.1 135.8V146.4C475.1 149.8 475.1 152 475.3 154.6C474.3 152.7 473.2 150.9 471.5 148.3L463.3 135.8H461.7V157.1H463.4V146.3C463.4 143 463.4 140.8 463.2 138.3C464.2 140.3 465.5 142.3 466.9 144.5L467.1 144.9L475.2 157.2H476.8V135.9H476.7H475.1V135.8Z" fill="white"/>
<path d="M448.3 135.8V157.1H450V135.8H449.9H448.3Z" fill="white"/>
<path d="M432.3 145.3C429.1 144.1 428 142.9 428 140.7C428 139.3 428.9 137 432.4 137C434.1 137 435.4 137.5 436 138L436.1 138.1L436.8 136.6L436.7 136.5C435.9 136 434.4 135.5 432.5 135.5C428.9 135.5 426.3 137.8 426.3 141C426.3 143.7 428 145.6 431.8 146.9C434.8 148.1 436 149.4 436 151.7C436 154.3 434.1 156 431.1 156C429.5 156 427.8 155.5 426.5 154.6L426.4 154.5L425.7 156L425.8 156.1C426.9 156.9 429.1 157.6 430.9 157.6C435.6 157.6 437.7 154.6 437.7 151.7C437.7 148.2 435.5 146.6 432.3 145.3Z" fill="white"/>
<path d="M382.4 135.2H383.9V145.1H384C385 143.2 386.8 142 389.4 142C393.2 142 395.8 145.1 395.8 149.6C395.8 154.9 392.4 157.5 389.2 157.5C386.8 157.5 385.1 156.5 383.9 154.5H383.8L383.7 157.2H382.4C382.5 156.1 382.5 154.9 382.5 153.7V135.2H382.4ZM383.9 151.4C383.9 151.7 383.9 152.1 384 152.5C384.6 154.8 386.6 156.2 388.9 156.2C392.3 156.2 394.2 153.4 394.2 149.6C394.2 146.2 392.3 143.2 389 143.2C386.8 143.2 384.8 144.7 384.1 147.2C384 147.6 383.9 148 383.9 148.5V151.4Z" fill="white"/>
<path d="M398.7 142.3L402.6 152C403 153.1 403.4 154.3 403.7 155.2H403.8C404.1 154.3 404.5 153.1 404.9 151.9L408.5 142.3H410.1L405.7 153.4C403.9 158 402.6 160.7 400.7 162.4C399.5 163.4 398.5 163.8 398.1 163.9L397.6 162.7C398.3 162.4 399.3 161.9 400.2 161.1C400.9 160.4 401.9 159.1 402.7 157.4C402.8 157.1 402.9 156.9 402.9 156.8C402.9 156.7 402.8 156.5 402.7 156.2L397.2 142.5H398.7V142.3Z" fill="white"/>
<path d="M67 48C68.8 48.7 69.8 49.3 71.4 50.2L71.5 50.3C71.6 50.4 71.8 50.5 71.9 50.5C74.7 52.1 77.4 54 79.8 56.2C82.1 58.3 84.3 60.6 86.2 63.1C88.1 65.6 89.7 68.2 91 71C92.3 73.8 93.4 76.7 94.2 79.6C95 82.6 95.5 85.6 95.7 88.7C95.9 91.8 95.8 94.9 95.5 98C95.1 101.1 94.4 104.2 93.4 107.2C92.4 110.3 91 113.2 89.4 116.1L50.6 183.2L22.9 167.2L59.9 103.2C60.5 102.2 61.2 101.1 61.8 100.1C68.2 89.1 72.2 77.6 73.2 67.8C73.7 63 73.4 58.9 72.5 55.6C71.5 52.1 69.7 49.7 67.2 48.2C67.2 48.1 67.1 48 67 48Z" fill="white"/>
<path d="M23 167.1L50.7 183.1L74 142.8C66.3 135.3 56.1 130.4 44.8 129.4L23 167.1Z" fill="white"/>
<path d="M70.2 149.3L89.5 116C91.1 113.2 92.5 110.2 93.5 107.1C94.5 104.1 95.2 101 95.6 97.9C96 94.8 96.1 91.7 95.8 88.6C95.6 86.1 95.2 83.5 94.6 81C89.7 72.6 82.4 65.8 73.5 61.7C73.6 63.6 73.5 65.5 73.3 67.7C72.3 77.5 68.2 88.9 61.9 100C61.3 101.1 60.7 102.1 60 103.1L33.9 148.2C39.8 150.9 46.4 152.4 53.3 152.4C59.3 152.4 64.9 151.3 70.2 149.3Z" fill="white"/>
<path d="M72.8 71.2001C71.3 80.2001 67.5 90.2001 61.8 100C61.2 101.1 60.6 102.1 59.9 103.1L33.8 148.2C39.7 150.9 46.3 152.4 53.2 152.4C59.1 152.4 64.8 151.3 70.1 149.3L89.4 116C91 113.2 92.4 110.2 93.4 107.1C93.6 106.4 93.8 105.7 94 105C92.2 90.8001 84.2 78.7001 72.8 71.2001Z" fill="white"/>
<path d="M70.1 81.8999C68.1 87.7999 65.3 93.9999 61.9 99.9999C61.3 101.1 60.7 102.1 60 103.1L33.9 148.2C39.8 150.9 46.4 152.4 53.3 152.4C59.1 152.4 64.7 151.3 69.9 149.4C70.1 149.2 70.2 149 70.4 148.9L82.2 128.4C83.3 124.3 84 120 84 115.6C84.1 102.4 78.7 90.4999 70.1 81.8999Z" fill="white"/>
<path d="M70.1 81.8999C68.1 87.7999 65.3 93.9999 61.9 99.9999C61.3 101.1 60.7 102.1 60 103.1L33.9 148.2C39.8 150.9 46.4 152.4 53.3 152.4C59.1 152.4 64.7 151.3 69.9 149.4C70.1 149.2 70.2 149 70.4 148.9L82.2 128.4C83.3 124.3 84 120 84 115.6C84.1 102.4 78.7 90.4999 70.1 81.8999Z" fill="white"/>
<path d="M28.9 135.1C27.1 134.4 26.1 133.8 24.5 132.9L24.4 132.8C24.3 132.7 24.1 132.6 24 132.6C21.2 131 18.5 129.1 16.1 126.9C13.8 124.8 11.6 122.5 9.7 120C7.8 117.5 6.2 114.9 4.9 112.1C3.6 109.3 2.5 106.4 1.7 103.5C0.899999 100.5 0.399999 97.5 0.199999 94.4C-5.66244e-07 91.3 0.0999983 88.2 0.399998 85.1C0.799998 82 1.5 78.9 2.5 75.9C3.5 72.8 4.9 69.9 6.5 67L45.2 0L72.9 16L35.9 80C35.3 81 34.6 82.1 34 83.1C27.6 94.1 23.6 105.6 22.6 115.4C22.1 120.2 22.4 124.3 23.3 127.6C24.3 131.1 26.1 133.5 28.6 135C28.7 135 28.8 135 28.9 135.1Z" fill="white"/>
<path d="M72.9 15.9L45.2 0L21.9 40.3C29.6 47.8 39.8 52.7 51.1 53.7L72.9 15.9Z" fill="white"/>
<path d="M25.7 33.8L6.50001 67.1C4.90001 69.9 3.50001 72.9 2.50001 76C1.50001 79 0.800006 82.1 0.400006 85.2C6.28829e-06 88.3 -0.0999926 91.4 0.200007 94.5C0.400007 97 0.800006 99.6 1.40001 102.1C6.30001 110.5 13.6 117.3 22.5 121.4C22.4 119.5 22.5 117.6 22.7 115.4C23.7 105.6 27.8 94.2 34.1 83.1C34.7 82 35.3 81 36 80L62 34.8C56.1 32.1 49.5 30.6 42.6 30.6C36.6 30.6 31 31.8 25.7 33.8Z" fill="white"/>
<path d="M23.1 111.9C24.6 102.9 28.4 92.9 34.1 83.1C34.7 82 35.3 81 36 80L62 34.8C56.1 32.1 49.5 30.6 42.6 30.6C36.7 30.6 31 31.7 25.7 33.7L6.49999 67.1C4.89999 69.9 3.49999 72.9 2.49999 76C2.29999 76.7 2.09999 77.4 1.89999 78.1C3.69999 92.2 11.7 104.4 23.1 111.9Z" fill="white"/>
<path d="M25.8 101.2C27.8 95.3 30.6 89.1 34 83.1C34.6 82 35.2 81 35.9 80L62 34.8C56.1 32.1 49.5 30.6 42.6 30.6C36.8 30.6 31.2 31.7 26 33.6C25.8 33.8 25.7 34 25.5 34.1L13.6 54.7C12.5 58.8 11.8 63.1 11.8 67.5C11.8 80.7 17.2 92.6 25.8 101.2Z" fill="white"/>
<path d="M25.8 101.2C27.8 95.3 30.6 89.1 34 83.1C34.6 82 35.2 81 35.9 80L62 34.8C56.1 32.1 49.5 30.6 42.6 30.6C36.8 30.6 31.2 31.7 26 33.6C25.8 33.8 25.7 34 25.5 34.1L13.6 54.7C12.5 58.8 11.8 63.1 11.8 67.5C11.8 80.7 17.2 92.6 25.8 101.2Z" fill="white"/>
</svg>
